<mxfile host="Electron" agent="Mozilla/5.0 (Windows NT 10.0; Win64; x64) AppleWebKit/537.36 (KHTML, like Gecko) draw.io/24.7.17 Chrome/128.0.6613.36 Electron/32.0.1 Safari/537.36" version="24.7.17">
  <diagram name="Page-1" id="1KTYMZF1maTuZgKKlsGn">
    <mxGraphModel dx="1418" dy="989" grid="1" gridSize="10" guides="1" tooltips="1" connect="1" arrows="1" fold="1" page="1" pageScale="1" pageWidth="827" pageHeight="1169" math="0" shadow="0">
      <root>
        <mxCell id="0" />
        <mxCell id="1" parent="0" />
        <mxCell id="aSrqv01INdevFViTIgLu-1" value="statuses" style="shape=table;startSize=30;container=1;collapsible=0;childLayout=tableLayout;strokeColor=default;fontSize=16;" parent="1" vertex="1">
          <mxGeometry x="60" y="360" width="120" height="190" as="geometry" />
        </mxCell>
        <mxCell id="aSrqv01INdevFViTIgLu-2" value="" style="shape=tableRow;horizontal=0;startSize=0;swimlaneHead=0;swimlaneBody=0;strokeColor=inherit;top=0;left=0;bottom=0;right=0;collapsible=0;dropTarget=0;fillColor=none;points=[[0,0.5],[1,0.5]];portConstraint=eastwest;fontSize=16;" parent="aSrqv01INdevFViTIgLu-1" vertex="1">
          <mxGeometry y="30" width="120" height="40" as="geometry" />
        </mxCell>
        <mxCell id="aSrqv01INdevFViTIgLu-3" value="id" style="shape=partialRectangle;html=1;whiteSpace=wrap;connectable=0;strokeColor=inherit;overflow=hidden;fillColor=none;top=0;left=0;bottom=0;right=0;pointerEvents=1;fontSize=16;" parent="aSrqv01INdevFViTIgLu-2" vertex="1">
          <mxGeometry width="60" height="40" as="geometry">
            <mxRectangle width="60" height="40" as="alternateBounds" />
          </mxGeometry>
        </mxCell>
        <mxCell id="aSrqv01INdevFViTIgLu-4" value="name" style="shape=partialRectangle;html=1;whiteSpace=wrap;connectable=0;strokeColor=inherit;overflow=hidden;fillColor=none;top=0;left=0;bottom=0;right=0;pointerEvents=1;fontSize=16;" parent="aSrqv01INdevFViTIgLu-2" vertex="1">
          <mxGeometry x="60" width="60" height="40" as="geometry">
            <mxRectangle width="60" height="40" as="alternateBounds" />
          </mxGeometry>
        </mxCell>
        <mxCell id="aSrqv01INdevFViTIgLu-6" value="" style="shape=tableRow;horizontal=0;startSize=0;swimlaneHead=0;swimlaneBody=0;strokeColor=inherit;top=0;left=0;bottom=0;right=0;collapsible=0;dropTarget=0;fillColor=none;points=[[0,0.5],[1,0.5]];portConstraint=eastwest;fontSize=16;" parent="aSrqv01INdevFViTIgLu-1" vertex="1">
          <mxGeometry y="70" width="120" height="40" as="geometry" />
        </mxCell>
        <mxCell id="aSrqv01INdevFViTIgLu-7" value="1" style="shape=partialRectangle;html=1;whiteSpace=wrap;connectable=0;strokeColor=inherit;overflow=hidden;fillColor=none;top=0;left=0;bottom=0;right=0;pointerEvents=1;fontSize=16;" parent="aSrqv01INdevFViTIgLu-6" vertex="1">
          <mxGeometry width="60" height="40" as="geometry">
            <mxRectangle width="60" height="40" as="alternateBounds" />
          </mxGeometry>
        </mxCell>
        <mxCell id="aSrqv01INdevFViTIgLu-8" value="author" style="shape=partialRectangle;html=1;whiteSpace=wrap;connectable=0;strokeColor=inherit;overflow=hidden;fillColor=none;top=0;left=0;bottom=0;right=0;pointerEvents=1;fontSize=16;" parent="aSrqv01INdevFViTIgLu-6" vertex="1">
          <mxGeometry x="60" width="60" height="40" as="geometry">
            <mxRectangle width="60" height="40" as="alternateBounds" />
          </mxGeometry>
        </mxCell>
        <mxCell id="aSrqv01INdevFViTIgLu-10" value="" style="shape=tableRow;horizontal=0;startSize=0;swimlaneHead=0;swimlaneBody=0;strokeColor=inherit;top=0;left=0;bottom=0;right=0;collapsible=0;dropTarget=0;fillColor=none;points=[[0,0.5],[1,0.5]];portConstraint=eastwest;fontSize=16;" parent="aSrqv01INdevFViTIgLu-1" vertex="1">
          <mxGeometry y="110" width="120" height="40" as="geometry" />
        </mxCell>
        <mxCell id="aSrqv01INdevFViTIgLu-11" value="2" style="shape=partialRectangle;html=1;whiteSpace=wrap;connectable=0;strokeColor=inherit;overflow=hidden;fillColor=none;top=0;left=0;bottom=0;right=0;pointerEvents=1;fontSize=16;" parent="aSrqv01INdevFViTIgLu-10" vertex="1">
          <mxGeometry width="60" height="40" as="geometry">
            <mxRectangle width="60" height="40" as="alternateBounds" />
          </mxGeometry>
        </mxCell>
        <mxCell id="aSrqv01INdevFViTIgLu-12" value="member" style="shape=partialRectangle;html=1;whiteSpace=wrap;connectable=0;strokeColor=inherit;overflow=hidden;fillColor=none;top=0;left=0;bottom=0;right=0;pointerEvents=1;fontSize=16;" parent="aSrqv01INdevFViTIgLu-10" vertex="1">
          <mxGeometry x="60" width="60" height="40" as="geometry">
            <mxRectangle width="60" height="40" as="alternateBounds" />
          </mxGeometry>
        </mxCell>
        <mxCell id="aSrqv01INdevFViTIgLu-14" style="shape=tableRow;horizontal=0;startSize=0;swimlaneHead=0;swimlaneBody=0;strokeColor=inherit;top=0;left=0;bottom=0;right=0;collapsible=0;dropTarget=0;fillColor=none;points=[[0,0.5],[1,0.5]];portConstraint=eastwest;fontSize=16;" parent="aSrqv01INdevFViTIgLu-1" vertex="1">
          <mxGeometry y="150" width="120" height="40" as="geometry" />
        </mxCell>
        <mxCell id="aSrqv01INdevFViTIgLu-15" value="3" style="shape=partialRectangle;html=1;whiteSpace=wrap;connectable=0;strokeColor=inherit;overflow=hidden;fillColor=none;top=0;left=0;bottom=0;right=0;pointerEvents=1;fontSize=16;" parent="aSrqv01INdevFViTIgLu-14" vertex="1">
          <mxGeometry width="60" height="40" as="geometry">
            <mxRectangle width="60" height="40" as="alternateBounds" />
          </mxGeometry>
        </mxCell>
        <mxCell id="aSrqv01INdevFViTIgLu-16" value="admin" style="shape=partialRectangle;html=1;whiteSpace=wrap;connectable=0;strokeColor=inherit;overflow=hidden;fillColor=none;top=0;left=0;bottom=0;right=0;pointerEvents=1;fontSize=16;" parent="aSrqv01INdevFViTIgLu-14" vertex="1">
          <mxGeometry x="60" width="60" height="40" as="geometry">
            <mxRectangle width="60" height="40" as="alternateBounds" />
          </mxGeometry>
        </mxCell>
        <mxCell id="aSrqv01INdevFViTIgLu-33" value="Priviledges" style="shape=table;startSize=30;container=1;collapsible=0;childLayout=tableLayout;strokeColor=default;fontSize=16;" parent="1" vertex="1">
          <mxGeometry x="60" y="80" width="650" height="230" as="geometry" />
        </mxCell>
        <mxCell id="aSrqv01INdevFViTIgLu-34" value="" style="shape=tableRow;horizontal=0;startSize=0;swimlaneHead=0;swimlaneBody=0;strokeColor=inherit;top=0;left=0;bottom=0;right=0;collapsible=0;dropTarget=0;fillColor=none;points=[[0,0.5],[1,0.5]];portConstraint=eastwest;fontSize=16;" parent="aSrqv01INdevFViTIgLu-33" vertex="1">
          <mxGeometry y="30" width="650" height="40" as="geometry" />
        </mxCell>
        <mxCell id="aSrqv01INdevFViTIgLu-35" value="" style="shape=partialRectangle;html=1;whiteSpace=wrap;connectable=0;strokeColor=inherit;overflow=hidden;fillColor=none;top=0;left=0;bottom=0;right=0;pointerEvents=1;fontSize=16;" parent="aSrqv01INdevFViTIgLu-34" vertex="1">
          <mxGeometry width="90" height="40" as="geometry">
            <mxRectangle width="90" height="40" as="alternateBounds" />
          </mxGeometry>
        </mxCell>
        <mxCell id="aSrqv01INdevFViTIgLu-36" value="View post on homepage" style="shape=partialRectangle;html=1;whiteSpace=wrap;connectable=0;strokeColor=inherit;overflow=hidden;fillColor=none;top=0;left=0;bottom=0;right=0;pointerEvents=1;fontSize=16;" parent="aSrqv01INdevFViTIgLu-34" vertex="1">
          <mxGeometry x="90" width="140" height="40" as="geometry">
            <mxRectangle width="140" height="40" as="alternateBounds" />
          </mxGeometry>
        </mxCell>
        <mxCell id="aSrqv01INdevFViTIgLu-63" value="Create post" style="shape=partialRectangle;html=1;whiteSpace=wrap;connectable=0;strokeColor=inherit;overflow=hidden;fillColor=none;top=0;left=0;bottom=0;right=0;pointerEvents=1;fontSize=16;" parent="aSrqv01INdevFViTIgLu-34" vertex="1">
          <mxGeometry x="230" width="140" height="40" as="geometry">
            <mxRectangle width="140" height="40" as="alternateBounds" />
          </mxGeometry>
        </mxCell>
        <mxCell id="aSrqv01INdevFViTIgLu-37" value="View post&#39;s author and date" style="shape=partialRectangle;html=1;whiteSpace=wrap;connectable=0;strokeColor=inherit;overflow=hidden;fillColor=none;top=0;left=0;bottom=0;right=0;pointerEvents=1;fontSize=16;" parent="aSrqv01INdevFViTIgLu-34" vertex="1">
          <mxGeometry x="370" width="140" height="40" as="geometry">
            <mxRectangle width="140" height="40" as="alternateBounds" />
          </mxGeometry>
        </mxCell>
        <mxCell id="aSrqv01INdevFViTIgLu-58" value="Delete posts" style="shape=partialRectangle;html=1;whiteSpace=wrap;connectable=0;strokeColor=inherit;overflow=hidden;fillColor=none;top=0;left=0;bottom=0;right=0;pointerEvents=1;fontSize=16;" parent="aSrqv01INdevFViTIgLu-34" vertex="1">
          <mxGeometry x="510" width="140" height="40" as="geometry">
            <mxRectangle width="140" height="40" as="alternateBounds" />
          </mxGeometry>
        </mxCell>
        <mxCell id="aSrqv01INdevFViTIgLu-38" value="" style="shape=tableRow;horizontal=0;startSize=0;swimlaneHead=0;swimlaneBody=0;strokeColor=inherit;top=0;left=0;bottom=0;right=0;collapsible=0;dropTarget=0;fillColor=none;points=[[0,0.5],[1,0.5]];portConstraint=eastwest;fontSize=16;" parent="aSrqv01INdevFViTIgLu-33" vertex="1">
          <mxGeometry y="70" width="650" height="40" as="geometry" />
        </mxCell>
        <mxCell id="aSrqv01INdevFViTIgLu-39" value="Anonymous users" style="shape=partialRectangle;html=1;whiteSpace=wrap;connectable=0;strokeColor=inherit;overflow=hidden;fillColor=none;top=0;left=0;bottom=0;right=0;pointerEvents=1;fontSize=16;" parent="aSrqv01INdevFViTIgLu-38" vertex="1">
          <mxGeometry width="90" height="40" as="geometry">
            <mxRectangle width="90" height="40" as="alternateBounds" />
          </mxGeometry>
        </mxCell>
        <mxCell id="aSrqv01INdevFViTIgLu-40" value="Yes" style="shape=partialRectangle;html=1;whiteSpace=wrap;connectable=0;strokeColor=inherit;overflow=hidden;fillColor=none;top=0;left=0;bottom=0;right=0;pointerEvents=1;fontSize=16;" parent="aSrqv01INdevFViTIgLu-38" vertex="1">
          <mxGeometry x="90" width="140" height="40" as="geometry">
            <mxRectangle width="140" height="40" as="alternateBounds" />
          </mxGeometry>
        </mxCell>
        <mxCell id="aSrqv01INdevFViTIgLu-64" value="No" style="shape=partialRectangle;html=1;whiteSpace=wrap;connectable=0;strokeColor=inherit;overflow=hidden;fillColor=none;top=0;left=0;bottom=0;right=0;pointerEvents=1;fontSize=16;" parent="aSrqv01INdevFViTIgLu-38" vertex="1">
          <mxGeometry x="230" width="140" height="40" as="geometry">
            <mxRectangle width="140" height="40" as="alternateBounds" />
          </mxGeometry>
        </mxCell>
        <mxCell id="aSrqv01INdevFViTIgLu-41" value="No" style="shape=partialRectangle;html=1;whiteSpace=wrap;connectable=0;strokeColor=inherit;overflow=hidden;fillColor=none;top=0;left=0;bottom=0;right=0;pointerEvents=1;fontSize=16;" parent="aSrqv01INdevFViTIgLu-38" vertex="1">
          <mxGeometry x="370" width="140" height="40" as="geometry">
            <mxRectangle width="140" height="40" as="alternateBounds" />
          </mxGeometry>
        </mxCell>
        <mxCell id="aSrqv01INdevFViTIgLu-59" value="No" style="shape=partialRectangle;html=1;whiteSpace=wrap;connectable=0;strokeColor=inherit;overflow=hidden;fillColor=none;top=0;left=0;bottom=0;right=0;pointerEvents=1;fontSize=16;" parent="aSrqv01INdevFViTIgLu-38" vertex="1">
          <mxGeometry x="510" width="140" height="40" as="geometry">
            <mxRectangle width="140" height="40" as="alternateBounds" />
          </mxGeometry>
        </mxCell>
        <mxCell id="aSrqv01INdevFViTIgLu-42" value="" style="shape=tableRow;horizontal=0;startSize=0;swimlaneHead=0;swimlaneBody=0;strokeColor=inherit;top=0;left=0;bottom=0;right=0;collapsible=0;dropTarget=0;fillColor=none;points=[[0,0.5],[1,0.5]];portConstraint=eastwest;fontSize=16;" parent="aSrqv01INdevFViTIgLu-33" vertex="1">
          <mxGeometry y="110" width="650" height="40" as="geometry" />
        </mxCell>
        <mxCell id="aSrqv01INdevFViTIgLu-43" value="Logged-in users" style="shape=partialRectangle;html=1;whiteSpace=wrap;connectable=0;strokeColor=inherit;overflow=hidden;fillColor=none;top=0;left=0;bottom=0;right=0;pointerEvents=1;fontSize=16;" parent="aSrqv01INdevFViTIgLu-42" vertex="1">
          <mxGeometry width="90" height="40" as="geometry">
            <mxRectangle width="90" height="40" as="alternateBounds" />
          </mxGeometry>
        </mxCell>
        <mxCell id="aSrqv01INdevFViTIgLu-44" value="Yes" style="shape=partialRectangle;html=1;whiteSpace=wrap;connectable=0;strokeColor=inherit;overflow=hidden;fillColor=none;top=0;left=0;bottom=0;right=0;pointerEvents=1;fontSize=16;" parent="aSrqv01INdevFViTIgLu-42" vertex="1">
          <mxGeometry x="90" width="140" height="40" as="geometry">
            <mxRectangle width="140" height="40" as="alternateBounds" />
          </mxGeometry>
        </mxCell>
        <mxCell id="aSrqv01INdevFViTIgLu-65" value="Yes" style="shape=partialRectangle;html=1;whiteSpace=wrap;connectable=0;strokeColor=inherit;overflow=hidden;fillColor=none;top=0;left=0;bottom=0;right=0;pointerEvents=1;fontSize=16;" parent="aSrqv01INdevFViTIgLu-42" vertex="1">
          <mxGeometry x="230" width="140" height="40" as="geometry">
            <mxRectangle width="140" height="40" as="alternateBounds" />
          </mxGeometry>
        </mxCell>
        <mxCell id="aSrqv01INdevFViTIgLu-45" value="No" style="shape=partialRectangle;html=1;whiteSpace=wrap;connectable=0;strokeColor=inherit;overflow=hidden;fillColor=none;top=0;left=0;bottom=0;right=0;pointerEvents=1;fontSize=16;" parent="aSrqv01INdevFViTIgLu-42" vertex="1">
          <mxGeometry x="370" width="140" height="40" as="geometry">
            <mxRectangle width="140" height="40" as="alternateBounds" />
          </mxGeometry>
        </mxCell>
        <mxCell id="aSrqv01INdevFViTIgLu-60" value="No" style="shape=partialRectangle;html=1;whiteSpace=wrap;connectable=0;strokeColor=inherit;overflow=hidden;fillColor=none;top=0;left=0;bottom=0;right=0;pointerEvents=1;fontSize=16;" parent="aSrqv01INdevFViTIgLu-42" vertex="1">
          <mxGeometry x="510" width="140" height="40" as="geometry">
            <mxRectangle width="140" height="40" as="alternateBounds" />
          </mxGeometry>
        </mxCell>
        <mxCell id="aSrqv01INdevFViTIgLu-54" style="shape=tableRow;horizontal=0;startSize=0;swimlaneHead=0;swimlaneBody=0;strokeColor=inherit;top=0;left=0;bottom=0;right=0;collapsible=0;dropTarget=0;fillColor=none;points=[[0,0.5],[1,0.5]];portConstraint=eastwest;fontSize=16;" parent="aSrqv01INdevFViTIgLu-33" vertex="1">
          <mxGeometry y="150" width="650" height="40" as="geometry" />
        </mxCell>
        <mxCell id="aSrqv01INdevFViTIgLu-55" value="Club members" style="shape=partialRectangle;html=1;whiteSpace=wrap;connectable=0;strokeColor=inherit;overflow=hidden;fillColor=none;top=0;left=0;bottom=0;right=0;pointerEvents=1;fontSize=16;" parent="aSrqv01INdevFViTIgLu-54" vertex="1">
          <mxGeometry width="90" height="40" as="geometry">
            <mxRectangle width="90" height="40" as="alternateBounds" />
          </mxGeometry>
        </mxCell>
        <mxCell id="aSrqv01INdevFViTIgLu-56" value="Yes" style="shape=partialRectangle;html=1;whiteSpace=wrap;connectable=0;strokeColor=inherit;overflow=hidden;fillColor=none;top=0;left=0;bottom=0;right=0;pointerEvents=1;fontSize=16;" parent="aSrqv01INdevFViTIgLu-54" vertex="1">
          <mxGeometry x="90" width="140" height="40" as="geometry">
            <mxRectangle width="140" height="40" as="alternateBounds" />
          </mxGeometry>
        </mxCell>
        <mxCell id="aSrqv01INdevFViTIgLu-66" value="Yes" style="shape=partialRectangle;html=1;whiteSpace=wrap;connectable=0;strokeColor=inherit;overflow=hidden;fillColor=none;top=0;left=0;bottom=0;right=0;pointerEvents=1;fontSize=16;" parent="aSrqv01INdevFViTIgLu-54" vertex="1">
          <mxGeometry x="230" width="140" height="40" as="geometry">
            <mxRectangle width="140" height="40" as="alternateBounds" />
          </mxGeometry>
        </mxCell>
        <mxCell id="aSrqv01INdevFViTIgLu-57" value="Yes" style="shape=partialRectangle;html=1;whiteSpace=wrap;connectable=0;strokeColor=inherit;overflow=hidden;fillColor=none;top=0;left=0;bottom=0;right=0;pointerEvents=1;fontSize=16;" parent="aSrqv01INdevFViTIgLu-54" vertex="1">
          <mxGeometry x="370" width="140" height="40" as="geometry">
            <mxRectangle width="140" height="40" as="alternateBounds" />
          </mxGeometry>
        </mxCell>
        <mxCell id="aSrqv01INdevFViTIgLu-61" value="No" style="shape=partialRectangle;html=1;whiteSpace=wrap;connectable=0;strokeColor=inherit;overflow=hidden;fillColor=none;top=0;left=0;bottom=0;right=0;pointerEvents=1;fontSize=16;" parent="aSrqv01INdevFViTIgLu-54" vertex="1">
          <mxGeometry x="510" width="140" height="40" as="geometry">
            <mxRectangle width="140" height="40" as="alternateBounds" />
          </mxGeometry>
        </mxCell>
        <mxCell id="aSrqv01INdevFViTIgLu-50" style="shape=tableRow;horizontal=0;startSize=0;swimlaneHead=0;swimlaneBody=0;strokeColor=inherit;top=0;left=0;bottom=0;right=0;collapsible=0;dropTarget=0;fillColor=none;points=[[0,0.5],[1,0.5]];portConstraint=eastwest;fontSize=16;" parent="aSrqv01INdevFViTIgLu-33" vertex="1">
          <mxGeometry y="190" width="650" height="40" as="geometry" />
        </mxCell>
        <mxCell id="aSrqv01INdevFViTIgLu-51" value="Admins" style="shape=partialRectangle;html=1;whiteSpace=wrap;connectable=0;strokeColor=inherit;overflow=hidden;fillColor=none;top=0;left=0;bottom=0;right=0;pointerEvents=1;fontSize=16;" parent="aSrqv01INdevFViTIgLu-50" vertex="1">
          <mxGeometry width="90" height="40" as="geometry">
            <mxRectangle width="90" height="40" as="alternateBounds" />
          </mxGeometry>
        </mxCell>
        <mxCell id="aSrqv01INdevFViTIgLu-52" value="Yes" style="shape=partialRectangle;html=1;whiteSpace=wrap;connectable=0;strokeColor=inherit;overflow=hidden;fillColor=none;top=0;left=0;bottom=0;right=0;pointerEvents=1;fontSize=16;" parent="aSrqv01INdevFViTIgLu-50" vertex="1">
          <mxGeometry x="90" width="140" height="40" as="geometry">
            <mxRectangle width="140" height="40" as="alternateBounds" />
          </mxGeometry>
        </mxCell>
        <mxCell id="aSrqv01INdevFViTIgLu-67" value="Yes" style="shape=partialRectangle;html=1;whiteSpace=wrap;connectable=0;strokeColor=inherit;overflow=hidden;fillColor=none;top=0;left=0;bottom=0;right=0;pointerEvents=1;fontSize=16;" parent="aSrqv01INdevFViTIgLu-50" vertex="1">
          <mxGeometry x="230" width="140" height="40" as="geometry">
            <mxRectangle width="140" height="40" as="alternateBounds" />
          </mxGeometry>
        </mxCell>
        <mxCell id="aSrqv01INdevFViTIgLu-53" value="Yes" style="shape=partialRectangle;html=1;whiteSpace=wrap;connectable=0;strokeColor=inherit;overflow=hidden;fillColor=none;top=0;left=0;bottom=0;right=0;pointerEvents=1;fontSize=16;" parent="aSrqv01INdevFViTIgLu-50" vertex="1">
          <mxGeometry x="370" width="140" height="40" as="geometry">
            <mxRectangle width="140" height="40" as="alternateBounds" />
          </mxGeometry>
        </mxCell>
        <mxCell id="aSrqv01INdevFViTIgLu-62" value="Yes" style="shape=partialRectangle;html=1;whiteSpace=wrap;connectable=0;strokeColor=inherit;overflow=hidden;fillColor=none;top=0;left=0;bottom=0;right=0;pointerEvents=1;fontSize=16;" parent="aSrqv01INdevFViTIgLu-50" vertex="1">
          <mxGeometry x="510" width="140" height="40" as="geometry">
            <mxRectangle width="140" height="40" as="alternateBounds" />
          </mxGeometry>
        </mxCell>
        <mxCell id="aSrqv01INdevFViTIgLu-68" value="users" style="shape=table;startSize=30;container=1;collapsible=0;childLayout=tableLayout;strokeColor=default;fontSize=16;" parent="1" vertex="1">
          <mxGeometry x="280" y="360" width="500" height="190" as="geometry" />
        </mxCell>
        <mxCell id="aSrqv01INdevFViTIgLu-69" value="" style="shape=tableRow;horizontal=0;startSize=0;swimlaneHead=0;swimlaneBody=0;strokeColor=inherit;top=0;left=0;bottom=0;right=0;collapsible=0;dropTarget=0;fillColor=none;points=[[0,0.5],[1,0.5]];portConstraint=eastwest;fontSize=16;" parent="aSrqv01INdevFViTIgLu-68" vertex="1">
          <mxGeometry y="30" width="500" height="40" as="geometry" />
        </mxCell>
        <mxCell id="aSrqv01INdevFViTIgLu-70" value="id" style="shape=partialRectangle;html=1;whiteSpace=wrap;connectable=0;strokeColor=inherit;overflow=hidden;fillColor=none;top=0;left=0;bottom=0;right=0;pointerEvents=1;fontSize=16;" parent="aSrqv01INdevFViTIgLu-69" vertex="1">
          <mxGeometry width="60" height="40" as="geometry">
            <mxRectangle width="60" height="40" as="alternateBounds" />
          </mxGeometry>
        </mxCell>
        <mxCell id="aSrqv01INdevFViTIgLu-71" value="username" style="shape=partialRectangle;html=1;whiteSpace=wrap;connectable=0;strokeColor=inherit;overflow=hidden;fillColor=none;top=0;left=0;bottom=0;right=0;pointerEvents=1;fontSize=16;" parent="aSrqv01INdevFViTIgLu-69" vertex="1">
          <mxGeometry x="60" width="80" height="40" as="geometry">
            <mxRectangle width="80" height="40" as="alternateBounds" />
          </mxGeometry>
        </mxCell>
        <mxCell id="aSrqv01INdevFViTIgLu-72" value="first_name" style="shape=partialRectangle;html=1;whiteSpace=wrap;connectable=0;strokeColor=inherit;overflow=hidden;fillColor=none;top=0;left=0;bottom=0;right=0;pointerEvents=1;fontSize=16;" parent="aSrqv01INdevFViTIgLu-69" vertex="1">
          <mxGeometry x="140" width="120" height="40" as="geometry">
            <mxRectangle width="120" height="40" as="alternateBounds" />
          </mxGeometry>
        </mxCell>
        <mxCell id="aSrqv01INdevFViTIgLu-81" value="last_name" style="shape=partialRectangle;html=1;whiteSpace=wrap;connectable=0;strokeColor=inherit;overflow=hidden;fillColor=none;top=0;left=0;bottom=0;right=0;pointerEvents=1;fontSize=16;" parent="aSrqv01INdevFViTIgLu-69" vertex="1">
          <mxGeometry x="260" width="120" height="40" as="geometry">
            <mxRectangle width="120" height="40" as="alternateBounds" />
          </mxGeometry>
        </mxCell>
        <mxCell id="aSrqv01INdevFViTIgLu-84" value="password" style="shape=partialRectangle;html=1;whiteSpace=wrap;connectable=0;strokeColor=inherit;overflow=hidden;fillColor=none;top=0;left=0;bottom=0;right=0;pointerEvents=1;fontSize=16;" parent="aSrqv01INdevFViTIgLu-69" vertex="1">
          <mxGeometry x="380" width="120" height="40" as="geometry">
            <mxRectangle width="120" height="40" as="alternateBounds" />
          </mxGeometry>
        </mxCell>
        <mxCell id="aSrqv01INdevFViTIgLu-73" value="" style="shape=tableRow;horizontal=0;startSize=0;swimlaneHead=0;swimlaneBody=0;strokeColor=inherit;top=0;left=0;bottom=0;right=0;collapsible=0;dropTarget=0;fillColor=none;points=[[0,0.5],[1,0.5]];portConstraint=eastwest;fontSize=16;" parent="aSrqv01INdevFViTIgLu-68" vertex="1">
          <mxGeometry y="70" width="500" height="40" as="geometry" />
        </mxCell>
        <mxCell id="aSrqv01INdevFViTIgLu-74" value="1" style="shape=partialRectangle;html=1;whiteSpace=wrap;connectable=0;strokeColor=inherit;overflow=hidden;fillColor=none;top=0;left=0;bottom=0;right=0;pointerEvents=1;fontSize=16;" parent="aSrqv01INdevFViTIgLu-73" vertex="1">
          <mxGeometry width="60" height="40" as="geometry">
            <mxRectangle width="60" height="40" as="alternateBounds" />
          </mxGeometry>
        </mxCell>
        <mxCell id="aSrqv01INdevFViTIgLu-75" value="olu" style="shape=partialRectangle;html=1;whiteSpace=wrap;connectable=0;strokeColor=inherit;overflow=hidden;fillColor=none;top=0;left=0;bottom=0;right=0;pointerEvents=1;fontSize=16;" parent="aSrqv01INdevFViTIgLu-73" vertex="1">
          <mxGeometry x="60" width="80" height="40" as="geometry">
            <mxRectangle width="80" height="40" as="alternateBounds" />
          </mxGeometry>
        </mxCell>
        <mxCell id="aSrqv01INdevFViTIgLu-76" value="Oluwatobi" style="shape=partialRectangle;html=1;whiteSpace=wrap;connectable=0;strokeColor=inherit;overflow=hidden;fillColor=none;top=0;left=0;bottom=0;right=0;pointerEvents=1;fontSize=16;" parent="aSrqv01INdevFViTIgLu-73" vertex="1">
          <mxGeometry x="140" width="120" height="40" as="geometry">
            <mxRectangle width="120" height="40" as="alternateBounds" />
          </mxGeometry>
        </mxCell>
        <mxCell id="aSrqv01INdevFViTIgLu-82" value="Sofela" style="shape=partialRectangle;html=1;whiteSpace=wrap;connectable=0;strokeColor=inherit;overflow=hidden;fillColor=none;top=0;left=0;bottom=0;right=0;pointerEvents=1;fontSize=16;" parent="aSrqv01INdevFViTIgLu-73" vertex="1">
          <mxGeometry x="260" width="120" height="40" as="geometry">
            <mxRectangle width="120" height="40" as="alternateBounds" />
          </mxGeometry>
        </mxCell>
        <mxCell id="aSrqv01INdevFViTIgLu-85" value="test" style="shape=partialRectangle;html=1;whiteSpace=wrap;connectable=0;strokeColor=inherit;overflow=hidden;fillColor=none;top=0;left=0;bottom=0;right=0;pointerEvents=1;fontSize=16;" parent="aSrqv01INdevFViTIgLu-73" vertex="1">
          <mxGeometry x="380" width="120" height="40" as="geometry">
            <mxRectangle width="120" height="40" as="alternateBounds" />
          </mxGeometry>
        </mxCell>
        <mxCell id="aSrqv01INdevFViTIgLu-77" value="" style="shape=tableRow;horizontal=0;startSize=0;swimlaneHead=0;swimlaneBody=0;strokeColor=inherit;top=0;left=0;bottom=0;right=0;collapsible=0;dropTarget=0;fillColor=none;points=[[0,0.5],[1,0.5]];portConstraint=eastwest;fontSize=16;" parent="aSrqv01INdevFViTIgLu-68" vertex="1">
          <mxGeometry y="110" width="500" height="40" as="geometry" />
        </mxCell>
        <mxCell id="aSrqv01INdevFViTIgLu-78" value="2" style="shape=partialRectangle;html=1;whiteSpace=wrap;connectable=0;strokeColor=inherit;overflow=hidden;fillColor=none;top=0;left=0;bottom=0;right=0;pointerEvents=1;fontSize=16;" parent="aSrqv01INdevFViTIgLu-77" vertex="1">
          <mxGeometry width="60" height="40" as="geometry">
            <mxRectangle width="60" height="40" as="alternateBounds" />
          </mxGeometry>
        </mxCell>
        <mxCell id="aSrqv01INdevFViTIgLu-79" value="cod" style="shape=partialRectangle;html=1;whiteSpace=wrap;connectable=0;strokeColor=inherit;overflow=hidden;fillColor=none;top=0;left=0;bottom=0;right=0;pointerEvents=1;fontSize=16;" parent="aSrqv01INdevFViTIgLu-77" vertex="1">
          <mxGeometry x="60" width="80" height="40" as="geometry">
            <mxRectangle width="80" height="40" as="alternateBounds" />
          </mxGeometry>
        </mxCell>
        <mxCell id="aSrqv01INdevFViTIgLu-80" value="Code" style="shape=partialRectangle;html=1;whiteSpace=wrap;connectable=0;strokeColor=inherit;overflow=hidden;fillColor=none;top=0;left=0;bottom=0;right=0;pointerEvents=1;fontSize=16;" parent="aSrqv01INdevFViTIgLu-77" vertex="1">
          <mxGeometry x="140" width="120" height="40" as="geometry">
            <mxRectangle width="120" height="40" as="alternateBounds" />
          </mxGeometry>
        </mxCell>
        <mxCell id="aSrqv01INdevFViTIgLu-83" value="Sweetly" style="shape=partialRectangle;html=1;whiteSpace=wrap;connectable=0;strokeColor=inherit;overflow=hidden;fillColor=none;top=0;left=0;bottom=0;right=0;pointerEvents=1;fontSize=16;" parent="aSrqv01INdevFViTIgLu-77" vertex="1">
          <mxGeometry x="260" width="120" height="40" as="geometry">
            <mxRectangle width="120" height="40" as="alternateBounds" />
          </mxGeometry>
        </mxCell>
        <mxCell id="aSrqv01INdevFViTIgLu-86" value="sample" style="shape=partialRectangle;html=1;whiteSpace=wrap;connectable=0;strokeColor=inherit;overflow=hidden;fillColor=none;top=0;left=0;bottom=0;right=0;pointerEvents=1;fontSize=16;" parent="aSrqv01INdevFViTIgLu-77" vertex="1">
          <mxGeometry x="380" width="120" height="40" as="geometry">
            <mxRectangle width="120" height="40" as="alternateBounds" />
          </mxGeometry>
        </mxCell>
        <mxCell id="aSrqv01INdevFViTIgLu-133" style="shape=tableRow;horizontal=0;startSize=0;swimlaneHead=0;swimlaneBody=0;strokeColor=inherit;top=0;left=0;bottom=0;right=0;collapsible=0;dropTarget=0;fillColor=none;points=[[0,0.5],[1,0.5]];portConstraint=eastwest;fontSize=16;" parent="aSrqv01INdevFViTIgLu-68" vertex="1">
          <mxGeometry y="150" width="500" height="40" as="geometry" />
        </mxCell>
        <mxCell id="aSrqv01INdevFViTIgLu-134" value="3" style="shape=partialRectangle;html=1;whiteSpace=wrap;connectable=0;strokeColor=inherit;overflow=hidden;fillColor=none;top=0;left=0;bottom=0;right=0;pointerEvents=1;fontSize=16;" parent="aSrqv01INdevFViTIgLu-133" vertex="1">
          <mxGeometry width="60" height="40" as="geometry">
            <mxRectangle width="60" height="40" as="alternateBounds" />
          </mxGeometry>
        </mxCell>
        <mxCell id="aSrqv01INdevFViTIgLu-135" value="sar" style="shape=partialRectangle;html=1;whiteSpace=wrap;connectable=0;strokeColor=inherit;overflow=hidden;fillColor=none;top=0;left=0;bottom=0;right=0;pointerEvents=1;fontSize=16;" parent="aSrqv01INdevFViTIgLu-133" vertex="1">
          <mxGeometry x="60" width="80" height="40" as="geometry">
            <mxRectangle width="80" height="40" as="alternateBounds" />
          </mxGeometry>
        </mxCell>
        <mxCell id="aSrqv01INdevFViTIgLu-136" value="Amax" style="shape=partialRectangle;html=1;whiteSpace=wrap;connectable=0;strokeColor=inherit;overflow=hidden;fillColor=none;top=0;left=0;bottom=0;right=0;pointerEvents=1;fontSize=16;" parent="aSrqv01INdevFViTIgLu-133" vertex="1">
          <mxGeometry x="140" width="120" height="40" as="geometry">
            <mxRectangle width="120" height="40" as="alternateBounds" />
          </mxGeometry>
        </mxCell>
        <mxCell id="aSrqv01INdevFViTIgLu-137" value="Brill" style="shape=partialRectangle;html=1;whiteSpace=wrap;connectable=0;strokeColor=inherit;overflow=hidden;fillColor=none;top=0;left=0;bottom=0;right=0;pointerEvents=1;fontSize=16;" parent="aSrqv01INdevFViTIgLu-133" vertex="1">
          <mxGeometry x="260" width="120" height="40" as="geometry">
            <mxRectangle width="120" height="40" as="alternateBounds" />
          </mxGeometry>
        </mxCell>
        <mxCell id="aSrqv01INdevFViTIgLu-138" value="example" style="shape=partialRectangle;html=1;whiteSpace=wrap;connectable=0;strokeColor=inherit;overflow=hidden;fillColor=none;top=0;left=0;bottom=0;right=0;pointerEvents=1;fontSize=16;" parent="aSrqv01INdevFViTIgLu-133" vertex="1">
          <mxGeometry x="380" width="120" height="40" as="geometry">
            <mxRectangle width="120" height="40" as="alternateBounds" />
          </mxGeometry>
        </mxCell>
        <mxCell id="aSrqv01INdevFViTIgLu-87" value="messages" style="shape=table;startSize=30;container=1;collapsible=0;childLayout=tableLayout;strokeColor=default;fontSize=16;" parent="1" vertex="1">
          <mxGeometry x="60" y="590" width="720" height="150" as="geometry" />
        </mxCell>
        <mxCell id="aSrqv01INdevFViTIgLu-88" value="" style="shape=tableRow;horizontal=0;startSize=0;swimlaneHead=0;swimlaneBody=0;strokeColor=inherit;top=0;left=0;bottom=0;right=0;collapsible=0;dropTarget=0;fillColor=none;points=[[0,0.5],[1,0.5]];portConstraint=eastwest;fontSize=16;" parent="aSrqv01INdevFViTIgLu-87" vertex="1">
          <mxGeometry y="30" width="720" height="40" as="geometry" />
        </mxCell>
        <mxCell id="aSrqv01INdevFViTIgLu-89" value="id" style="shape=partialRectangle;html=1;whiteSpace=wrap;connectable=0;strokeColor=inherit;overflow=hidden;fillColor=none;top=0;left=0;bottom=0;right=0;pointerEvents=1;fontSize=16;" parent="aSrqv01INdevFViTIgLu-88" vertex="1">
          <mxGeometry width="60" height="40" as="geometry">
            <mxRectangle width="60" height="40" as="alternateBounds" />
          </mxGeometry>
        </mxCell>
        <mxCell id="aSrqv01INdevFViTIgLu-90" value="title" style="shape=partialRectangle;html=1;whiteSpace=wrap;connectable=0;strokeColor=inherit;overflow=hidden;fillColor=none;top=0;left=0;bottom=0;right=0;pointerEvents=1;fontSize=16;" parent="aSrqv01INdevFViTIgLu-88" vertex="1">
          <mxGeometry x="60" width="180" height="40" as="geometry">
            <mxRectangle width="180" height="40" as="alternateBounds" />
          </mxGeometry>
        </mxCell>
        <mxCell id="aSrqv01INdevFViTIgLu-91" value="text" style="shape=partialRectangle;html=1;whiteSpace=wrap;connectable=0;strokeColor=inherit;overflow=hidden;fillColor=none;top=0;left=0;bottom=0;right=0;pointerEvents=1;fontSize=16;" parent="aSrqv01INdevFViTIgLu-88" vertex="1">
          <mxGeometry x="240" width="240" height="40" as="geometry">
            <mxRectangle width="240" height="40" as="alternateBounds" />
          </mxGeometry>
        </mxCell>
        <mxCell id="aSrqv01INdevFViTIgLu-100" value="time" style="shape=partialRectangle;html=1;whiteSpace=wrap;connectable=0;strokeColor=inherit;overflow=hidden;fillColor=none;top=0;left=0;bottom=0;right=0;pointerEvents=1;fontSize=16;" parent="aSrqv01INdevFViTIgLu-88" vertex="1">
          <mxGeometry x="480" width="240" height="40" as="geometry">
            <mxRectangle width="240" height="40" as="alternateBounds" />
          </mxGeometry>
        </mxCell>
        <mxCell id="aSrqv01INdevFViTIgLu-92" value="" style="shape=tableRow;horizontal=0;startSize=0;swimlaneHead=0;swimlaneBody=0;strokeColor=inherit;top=0;left=0;bottom=0;right=0;collapsible=0;dropTarget=0;fillColor=none;points=[[0,0.5],[1,0.5]];portConstraint=eastwest;fontSize=16;" parent="aSrqv01INdevFViTIgLu-87" vertex="1">
          <mxGeometry y="70" width="720" height="40" as="geometry" />
        </mxCell>
        <mxCell id="aSrqv01INdevFViTIgLu-93" value="1" style="shape=partialRectangle;html=1;whiteSpace=wrap;connectable=0;strokeColor=inherit;overflow=hidden;fillColor=none;top=0;left=0;bottom=0;right=0;pointerEvents=1;fontSize=16;" parent="aSrqv01INdevFViTIgLu-92" vertex="1">
          <mxGeometry width="60" height="40" as="geometry">
            <mxRectangle width="60" height="40" as="alternateBounds" />
          </mxGeometry>
        </mxCell>
        <mxCell id="aSrqv01INdevFViTIgLu-94" value="Sweet Life" style="shape=partialRectangle;html=1;whiteSpace=wrap;connectable=0;strokeColor=inherit;overflow=hidden;fillColor=none;top=0;left=0;bottom=0;right=0;pointerEvents=1;fontSize=16;" parent="aSrqv01INdevFViTIgLu-92" vertex="1">
          <mxGeometry x="60" width="180" height="40" as="geometry">
            <mxRectangle width="180" height="40" as="alternateBounds" />
          </mxGeometry>
        </mxCell>
        <mxCell id="aSrqv01INdevFViTIgLu-95" value="Who knows how to live a sweet life?" style="shape=partialRectangle;html=1;whiteSpace=wrap;connectable=0;strokeColor=inherit;overflow=hidden;fillColor=none;top=0;left=0;bottom=0;right=0;pointerEvents=1;fontSize=16;" parent="aSrqv01INdevFViTIgLu-92" vertex="1">
          <mxGeometry x="240" width="240" height="40" as="geometry">
            <mxRectangle width="240" height="40" as="alternateBounds" />
          </mxGeometry>
        </mxCell>
        <mxCell id="aSrqv01INdevFViTIgLu-101" value="2024-09-29" style="shape=partialRectangle;html=1;whiteSpace=wrap;connectable=0;strokeColor=inherit;overflow=hidden;fillColor=none;top=0;left=0;bottom=0;right=0;pointerEvents=1;fontSize=16;" parent="aSrqv01INdevFViTIgLu-92" vertex="1">
          <mxGeometry x="480" width="240" height="40" as="geometry">
            <mxRectangle width="240" height="40" as="alternateBounds" />
          </mxGeometry>
        </mxCell>
        <mxCell id="aSrqv01INdevFViTIgLu-96" value="" style="shape=tableRow;horizontal=0;startSize=0;swimlaneHead=0;swimlaneBody=0;strokeColor=inherit;top=0;left=0;bottom=0;right=0;collapsible=0;dropTarget=0;fillColor=none;points=[[0,0.5],[1,0.5]];portConstraint=eastwest;fontSize=16;" parent="aSrqv01INdevFViTIgLu-87" vertex="1">
          <mxGeometry y="110" width="720" height="40" as="geometry" />
        </mxCell>
        <mxCell id="aSrqv01INdevFViTIgLu-97" value="2" style="shape=partialRectangle;html=1;whiteSpace=wrap;connectable=0;strokeColor=inherit;overflow=hidden;fillColor=none;top=0;left=0;bottom=0;right=0;pointerEvents=1;fontSize=16;" parent="aSrqv01INdevFViTIgLu-96" vertex="1">
          <mxGeometry width="60" height="40" as="geometry">
            <mxRectangle width="60" height="40" as="alternateBounds" />
          </mxGeometry>
        </mxCell>
        <mxCell id="aSrqv01INdevFViTIgLu-98" value="In the beginning" style="shape=partialRectangle;html=1;whiteSpace=wrap;connectable=0;strokeColor=inherit;overflow=hidden;fillColor=none;top=0;left=0;bottom=0;right=0;pointerEvents=1;fontSize=16;" parent="aSrqv01INdevFViTIgLu-96" vertex="1">
          <mxGeometry x="60" width="180" height="40" as="geometry">
            <mxRectangle width="180" height="40" as="alternateBounds" />
          </mxGeometry>
        </mxCell>
        <mxCell id="aSrqv01INdevFViTIgLu-99" value="Always start your day in the light." style="shape=partialRectangle;html=1;whiteSpace=wrap;connectable=0;strokeColor=inherit;overflow=hidden;fillColor=none;top=0;left=0;bottom=0;right=0;pointerEvents=1;fontSize=16;" parent="aSrqv01INdevFViTIgLu-96" vertex="1">
          <mxGeometry x="240" width="240" height="40" as="geometry">
            <mxRectangle width="240" height="40" as="alternateBounds" />
          </mxGeometry>
        </mxCell>
        <mxCell id="aSrqv01INdevFViTIgLu-102" value="2024-09-29" style="shape=partialRectangle;html=1;whiteSpace=wrap;connectable=0;strokeColor=inherit;overflow=hidden;fillColor=none;top=0;left=0;bottom=0;right=0;pointerEvents=1;fontSize=16;" parent="aSrqv01INdevFViTIgLu-96" vertex="1">
          <mxGeometry x="480" width="240" height="40" as="geometry">
            <mxRectangle width="240" height="40" as="alternateBounds" />
          </mxGeometry>
        </mxCell>
        <mxCell id="aSrqv01INdevFViTIgLu-103" value="user_status" style="shape=table;startSize=30;container=1;collapsible=0;childLayout=tableLayout;strokeColor=default;fontSize=16;" parent="1" vertex="1">
          <mxGeometry x="60" y="820" width="230" height="190" as="geometry" />
        </mxCell>
        <mxCell id="aSrqv01INdevFViTIgLu-104" value="" style="shape=tableRow;horizontal=0;startSize=0;swimlaneHead=0;swimlaneBody=0;strokeColor=inherit;top=0;left=0;bottom=0;right=0;collapsible=0;dropTarget=0;fillColor=none;points=[[0,0.5],[1,0.5]];portConstraint=eastwest;fontSize=16;" parent="aSrqv01INdevFViTIgLu-103" vertex="1">
          <mxGeometry y="30" width="230" height="40" as="geometry" />
        </mxCell>
        <mxCell id="aSrqv01INdevFViTIgLu-105" value="id" style="shape=partialRectangle;html=1;whiteSpace=wrap;connectable=0;strokeColor=inherit;overflow=hidden;fillColor=none;top=0;left=0;bottom=0;right=0;pointerEvents=1;fontSize=16;" parent="aSrqv01INdevFViTIgLu-104" vertex="1">
          <mxGeometry width="60" height="40" as="geometry">
            <mxRectangle width="60" height="40" as="alternateBounds" />
          </mxGeometry>
        </mxCell>
        <mxCell id="aSrqv01INdevFViTIgLu-106" value="user_id" style="shape=partialRectangle;html=1;whiteSpace=wrap;connectable=0;strokeColor=inherit;overflow=hidden;fillColor=none;top=0;left=0;bottom=0;right=0;pointerEvents=1;fontSize=16;" parent="aSrqv01INdevFViTIgLu-104" vertex="1">
          <mxGeometry x="60" width="80" height="40" as="geometry">
            <mxRectangle width="80" height="40" as="alternateBounds" />
          </mxGeometry>
        </mxCell>
        <mxCell id="aSrqv01INdevFViTIgLu-107" value="status_id" style="shape=partialRectangle;html=1;whiteSpace=wrap;connectable=0;strokeColor=inherit;overflow=hidden;fillColor=none;top=0;left=0;bottom=0;right=0;pointerEvents=1;fontSize=16;" parent="aSrqv01INdevFViTIgLu-104" vertex="1">
          <mxGeometry x="140" width="90" height="40" as="geometry">
            <mxRectangle width="90" height="40" as="alternateBounds" />
          </mxGeometry>
        </mxCell>
        <mxCell id="aSrqv01INdevFViTIgLu-108" value="" style="shape=tableRow;horizontal=0;startSize=0;swimlaneHead=0;swimlaneBody=0;strokeColor=inherit;top=0;left=0;bottom=0;right=0;collapsible=0;dropTarget=0;fillColor=none;points=[[0,0.5],[1,0.5]];portConstraint=eastwest;fontSize=16;" parent="aSrqv01INdevFViTIgLu-103" vertex="1">
          <mxGeometry y="70" width="230" height="40" as="geometry" />
        </mxCell>
        <mxCell id="aSrqv01INdevFViTIgLu-109" value="1" style="shape=partialRectangle;html=1;whiteSpace=wrap;connectable=0;strokeColor=inherit;overflow=hidden;fillColor=none;top=0;left=0;bottom=0;right=0;pointerEvents=1;fontSize=16;" parent="aSrqv01INdevFViTIgLu-108" vertex="1">
          <mxGeometry width="60" height="40" as="geometry">
            <mxRectangle width="60" height="40" as="alternateBounds" />
          </mxGeometry>
        </mxCell>
        <mxCell id="aSrqv01INdevFViTIgLu-110" value="2" style="shape=partialRectangle;html=1;whiteSpace=wrap;connectable=0;strokeColor=inherit;overflow=hidden;fillColor=none;top=0;left=0;bottom=0;right=0;pointerEvents=1;fontSize=16;" parent="aSrqv01INdevFViTIgLu-108" vertex="1">
          <mxGeometry x="60" width="80" height="40" as="geometry">
            <mxRectangle width="80" height="40" as="alternateBounds" />
          </mxGeometry>
        </mxCell>
        <mxCell id="aSrqv01INdevFViTIgLu-111" value="1" style="shape=partialRectangle;html=1;whiteSpace=wrap;connectable=0;strokeColor=inherit;overflow=hidden;fillColor=none;top=0;left=0;bottom=0;right=0;pointerEvents=1;fontSize=16;" parent="aSrqv01INdevFViTIgLu-108" vertex="1">
          <mxGeometry x="140" width="90" height="40" as="geometry">
            <mxRectangle width="90" height="40" as="alternateBounds" />
          </mxGeometry>
        </mxCell>
        <mxCell id="aSrqv01INdevFViTIgLu-112" value="" style="shape=tableRow;horizontal=0;startSize=0;swimlaneHead=0;swimlaneBody=0;strokeColor=inherit;top=0;left=0;bottom=0;right=0;collapsible=0;dropTarget=0;fillColor=none;points=[[0,0.5],[1,0.5]];portConstraint=eastwest;fontSize=16;" parent="aSrqv01INdevFViTIgLu-103" vertex="1">
          <mxGeometry y="110" width="230" height="40" as="geometry" />
        </mxCell>
        <mxCell id="aSrqv01INdevFViTIgLu-113" value="2" style="shape=partialRectangle;html=1;whiteSpace=wrap;connectable=0;strokeColor=inherit;overflow=hidden;fillColor=none;top=0;left=0;bottom=0;right=0;pointerEvents=1;fontSize=16;" parent="aSrqv01INdevFViTIgLu-112" vertex="1">
          <mxGeometry width="60" height="40" as="geometry">
            <mxRectangle width="60" height="40" as="alternateBounds" />
          </mxGeometry>
        </mxCell>
        <mxCell id="aSrqv01INdevFViTIgLu-114" value="3" style="shape=partialRectangle;html=1;whiteSpace=wrap;connectable=0;strokeColor=inherit;overflow=hidden;fillColor=none;top=0;left=0;bottom=0;right=0;pointerEvents=1;fontSize=16;" parent="aSrqv01INdevFViTIgLu-112" vertex="1">
          <mxGeometry x="60" width="80" height="40" as="geometry">
            <mxRectangle width="80" height="40" as="alternateBounds" />
          </mxGeometry>
        </mxCell>
        <mxCell id="aSrqv01INdevFViTIgLu-115" value="3" style="shape=partialRectangle;html=1;whiteSpace=wrap;connectable=0;strokeColor=inherit;overflow=hidden;fillColor=none;top=0;left=0;bottom=0;right=0;pointerEvents=1;fontSize=16;" parent="aSrqv01INdevFViTIgLu-112" vertex="1">
          <mxGeometry x="140" width="90" height="40" as="geometry">
            <mxRectangle width="90" height="40" as="alternateBounds" />
          </mxGeometry>
        </mxCell>
        <mxCell id="aSrqv01INdevFViTIgLu-129" style="shape=tableRow;horizontal=0;startSize=0;swimlaneHead=0;swimlaneBody=0;strokeColor=inherit;top=0;left=0;bottom=0;right=0;collapsible=0;dropTarget=0;fillColor=none;points=[[0,0.5],[1,0.5]];portConstraint=eastwest;fontSize=16;" parent="aSrqv01INdevFViTIgLu-103" vertex="1">
          <mxGeometry y="150" width="230" height="40" as="geometry" />
        </mxCell>
        <mxCell id="aSrqv01INdevFViTIgLu-130" value="3" style="shape=partialRectangle;html=1;whiteSpace=wrap;connectable=0;strokeColor=inherit;overflow=hidden;fillColor=none;top=0;left=0;bottom=0;right=0;pointerEvents=1;fontSize=16;" parent="aSrqv01INdevFViTIgLu-129" vertex="1">
          <mxGeometry width="60" height="40" as="geometry">
            <mxRectangle width="60" height="40" as="alternateBounds" />
          </mxGeometry>
        </mxCell>
        <mxCell id="aSrqv01INdevFViTIgLu-131" value="1" style="shape=partialRectangle;html=1;whiteSpace=wrap;connectable=0;strokeColor=inherit;overflow=hidden;fillColor=none;top=0;left=0;bottom=0;right=0;pointerEvents=1;fontSize=16;" parent="aSrqv01INdevFViTIgLu-129" vertex="1">
          <mxGeometry x="60" width="80" height="40" as="geometry">
            <mxRectangle width="80" height="40" as="alternateBounds" />
          </mxGeometry>
        </mxCell>
        <mxCell id="aSrqv01INdevFViTIgLu-132" value="2" style="shape=partialRectangle;html=1;whiteSpace=wrap;connectable=0;strokeColor=inherit;overflow=hidden;fillColor=none;top=0;left=0;bottom=0;right=0;pointerEvents=1;fontSize=16;" parent="aSrqv01INdevFViTIgLu-129" vertex="1">
          <mxGeometry x="140" width="90" height="40" as="geometry">
            <mxRectangle width="90" height="40" as="alternateBounds" />
          </mxGeometry>
        </mxCell>
        <mxCell id="aSrqv01INdevFViTIgLu-116" value="user_message" style="shape=table;startSize=30;container=1;collapsible=0;childLayout=tableLayout;strokeColor=default;fontSize=16;" parent="1" vertex="1">
          <mxGeometry x="350" y="820" width="280" height="150" as="geometry" />
        </mxCell>
        <mxCell id="aSrqv01INdevFViTIgLu-117" value="" style="shape=tableRow;horizontal=0;startSize=0;swimlaneHead=0;swimlaneBody=0;strokeColor=inherit;top=0;left=0;bottom=0;right=0;collapsible=0;dropTarget=0;fillColor=none;points=[[0,0.5],[1,0.5]];portConstraint=eastwest;fontSize=16;" parent="aSrqv01INdevFViTIgLu-116" vertex="1">
          <mxGeometry y="30" width="280" height="40" as="geometry" />
        </mxCell>
        <mxCell id="aSrqv01INdevFViTIgLu-118" value="id" style="shape=partialRectangle;html=1;whiteSpace=wrap;connectable=0;strokeColor=inherit;overflow=hidden;fillColor=none;top=0;left=0;bottom=0;right=0;pointerEvents=1;fontSize=16;" parent="aSrqv01INdevFViTIgLu-117" vertex="1">
          <mxGeometry width="60" height="40" as="geometry">
            <mxRectangle width="60" height="40" as="alternateBounds" />
          </mxGeometry>
        </mxCell>
        <mxCell id="aSrqv01INdevFViTIgLu-119" value="user_id" style="shape=partialRectangle;html=1;whiteSpace=wrap;connectable=0;strokeColor=inherit;overflow=hidden;fillColor=none;top=0;left=0;bottom=0;right=0;pointerEvents=1;fontSize=16;" parent="aSrqv01INdevFViTIgLu-117" vertex="1">
          <mxGeometry x="60" width="100" height="40" as="geometry">
            <mxRectangle width="100" height="40" as="alternateBounds" />
          </mxGeometry>
        </mxCell>
        <mxCell id="aSrqv01INdevFViTIgLu-120" value="message_id" style="shape=partialRectangle;html=1;whiteSpace=wrap;connectable=0;strokeColor=inherit;overflow=hidden;fillColor=none;top=0;left=0;bottom=0;right=0;pointerEvents=1;fontSize=16;" parent="aSrqv01INdevFViTIgLu-117" vertex="1">
          <mxGeometry x="160" width="120" height="40" as="geometry">
            <mxRectangle width="120" height="40" as="alternateBounds" />
          </mxGeometry>
        </mxCell>
        <mxCell id="aSrqv01INdevFViTIgLu-121" value="" style="shape=tableRow;horizontal=0;startSize=0;swimlaneHead=0;swimlaneBody=0;strokeColor=inherit;top=0;left=0;bottom=0;right=0;collapsible=0;dropTarget=0;fillColor=none;points=[[0,0.5],[1,0.5]];portConstraint=eastwest;fontSize=16;" parent="aSrqv01INdevFViTIgLu-116" vertex="1">
          <mxGeometry y="70" width="280" height="40" as="geometry" />
        </mxCell>
        <mxCell id="aSrqv01INdevFViTIgLu-122" value="1" style="shape=partialRectangle;html=1;whiteSpace=wrap;connectable=0;strokeColor=inherit;overflow=hidden;fillColor=none;top=0;left=0;bottom=0;right=0;pointerEvents=1;fontSize=16;" parent="aSrqv01INdevFViTIgLu-121" vertex="1">
          <mxGeometry width="60" height="40" as="geometry">
            <mxRectangle width="60" height="40" as="alternateBounds" />
          </mxGeometry>
        </mxCell>
        <mxCell id="aSrqv01INdevFViTIgLu-123" value="1" style="shape=partialRectangle;html=1;whiteSpace=wrap;connectable=0;strokeColor=inherit;overflow=hidden;fillColor=none;top=0;left=0;bottom=0;right=0;pointerEvents=1;fontSize=16;" parent="aSrqv01INdevFViTIgLu-121" vertex="1">
          <mxGeometry x="60" width="100" height="40" as="geometry">
            <mxRectangle width="100" height="40" as="alternateBounds" />
          </mxGeometry>
        </mxCell>
        <mxCell id="aSrqv01INdevFViTIgLu-124" value="2" style="shape=partialRectangle;html=1;whiteSpace=wrap;connectable=0;strokeColor=inherit;overflow=hidden;fillColor=none;top=0;left=0;bottom=0;right=0;pointerEvents=1;fontSize=16;" parent="aSrqv01INdevFViTIgLu-121" vertex="1">
          <mxGeometry x="160" width="120" height="40" as="geometry">
            <mxRectangle width="120" height="40" as="alternateBounds" />
          </mxGeometry>
        </mxCell>
        <mxCell id="aSrqv01INdevFViTIgLu-125" value="" style="shape=tableRow;horizontal=0;startSize=0;swimlaneHead=0;swimlaneBody=0;strokeColor=inherit;top=0;left=0;bottom=0;right=0;collapsible=0;dropTarget=0;fillColor=none;points=[[0,0.5],[1,0.5]];portConstraint=eastwest;fontSize=16;" parent="aSrqv01INdevFViTIgLu-116" vertex="1">
          <mxGeometry y="110" width="280" height="40" as="geometry" />
        </mxCell>
        <mxCell id="aSrqv01INdevFViTIgLu-126" value="2" style="shape=partialRectangle;html=1;whiteSpace=wrap;connectable=0;strokeColor=inherit;overflow=hidden;fillColor=none;top=0;left=0;bottom=0;right=0;pointerEvents=1;fontSize=16;" parent="aSrqv01INdevFViTIgLu-125" vertex="1">
          <mxGeometry width="60" height="40" as="geometry">
            <mxRectangle width="60" height="40" as="alternateBounds" />
          </mxGeometry>
        </mxCell>
        <mxCell id="aSrqv01INdevFViTIgLu-127" value="2" style="shape=partialRectangle;html=1;whiteSpace=wrap;connectable=0;strokeColor=inherit;overflow=hidden;fillColor=none;top=0;left=0;bottom=0;right=0;pointerEvents=1;fontSize=16;" parent="aSrqv01INdevFViTIgLu-125" vertex="1">
          <mxGeometry x="60" width="100" height="40" as="geometry">
            <mxRectangle width="100" height="40" as="alternateBounds" />
          </mxGeometry>
        </mxCell>
        <mxCell id="aSrqv01INdevFViTIgLu-128" value="1" style="shape=partialRectangle;html=1;whiteSpace=wrap;connectable=0;strokeColor=inherit;overflow=hidden;fillColor=none;top=0;left=0;bottom=0;right=0;pointerEvents=1;fontSize=16;" parent="aSrqv01INdevFViTIgLu-125" vertex="1">
          <mxGeometry x="160" width="120" height="40" as="geometry">
            <mxRectangle width="120" height="40" as="alternateBounds" />
          </mxGeometry>
        </mxCell>
        <mxCell id="omxpUwxtyCjrDYc1Hlnn-1" value="Homepage" style="text;html=1;align=center;verticalAlign=middle;whiteSpace=wrap;rounded=0;strokeColor=default;perimeterSpacing=0;strokeWidth=1;fillColor=none;spacing=2;" parent="1" vertex="1">
          <mxGeometry x="895" y="290" width="80" height="30" as="geometry" />
        </mxCell>
        <mxCell id="omxpUwxtyCjrDYc1Hlnn-2" value="Create post button" style="text;html=1;align=center;verticalAlign=middle;whiteSpace=wrap;rounded=0;strokeColor=default;perimeterSpacing=0;strokeWidth=1;fillColor=none;spacing=2;" parent="1" vertex="1">
          <mxGeometry x="1065" y="370" width="80" height="30" as="geometry" />
        </mxCell>
        <mxCell id="omxpUwxtyCjrDYc1Hlnn-3" value="Login button" style="text;html=1;align=center;verticalAlign=middle;whiteSpace=wrap;rounded=0;strokeColor=default;perimeterSpacing=0;strokeWidth=1;fillColor=none;spacing=2;" parent="1" vertex="1">
          <mxGeometry x="1065" y="140" width="80" height="30" as="geometry" />
        </mxCell>
        <mxCell id="omxpUwxtyCjrDYc1Hlnn-4" value="All posts" style="text;html=1;align=center;verticalAlign=middle;whiteSpace=wrap;rounded=0;strokeColor=default;perimeterSpacing=0;strokeWidth=1;fillColor=none;spacing=2;" parent="1" vertex="1">
          <mxGeometry x="1065" y="450" width="80" height="30" as="geometry" />
        </mxCell>
        <mxCell id="omxpUwxtyCjrDYc1Hlnn-9" value="" style="endArrow=classic;html=1;rounded=0;exitX=1;exitY=0.5;exitDx=0;exitDy=0;entryX=0;entryY=0.5;entryDx=0;entryDy=0;" parent="1" source="omxpUwxtyCjrDYc1Hlnn-1" target="omxpUwxtyCjrDYc1Hlnn-3" edge="1">
          <mxGeometry width="50" height="50" relative="1" as="geometry">
            <mxPoint x="935" y="290" as="sourcePoint" />
            <mxPoint x="985" y="240" as="targetPoint" />
          </mxGeometry>
        </mxCell>
        <mxCell id="omxpUwxtyCjrDYc1Hlnn-10" value="" style="endArrow=classic;html=1;rounded=0;exitX=1;exitY=0.5;exitDx=0;exitDy=0;entryX=0;entryY=0.5;entryDx=0;entryDy=0;" parent="1" source="omxpUwxtyCjrDYc1Hlnn-1" target="omxpUwxtyCjrDYc1Hlnn-2" edge="1">
          <mxGeometry width="50" height="50" relative="1" as="geometry">
            <mxPoint x="935" y="340" as="sourcePoint" />
            <mxPoint x="985" y="290" as="targetPoint" />
          </mxGeometry>
        </mxCell>
        <mxCell id="omxpUwxtyCjrDYc1Hlnn-11" value="" style="endArrow=classic;html=1;rounded=0;exitX=1;exitY=0.5;exitDx=0;exitDy=0;entryX=-0.002;entryY=0.625;entryDx=0;entryDy=0;entryPerimeter=0;" parent="1" source="omxpUwxtyCjrDYc1Hlnn-1" target="omxpUwxtyCjrDYc1Hlnn-4" edge="1">
          <mxGeometry width="50" height="50" relative="1" as="geometry">
            <mxPoint x="935" y="340" as="sourcePoint" />
            <mxPoint x="985" y="290" as="targetPoint" />
          </mxGeometry>
        </mxCell>
        <mxCell id="omxpUwxtyCjrDYc1Hlnn-12" value="Sign up page" style="text;html=1;align=center;verticalAlign=middle;whiteSpace=wrap;rounded=0;strokeColor=default;perimeterSpacing=0;strokeWidth=1;fillColor=none;spacing=2;" parent="1" vertex="1">
          <mxGeometry x="1285" y="210" width="80" height="30" as="geometry" />
        </mxCell>
        <mxCell id="omxpUwxtyCjrDYc1Hlnn-13" value="First name" style="text;html=1;align=center;verticalAlign=middle;whiteSpace=wrap;rounded=0;strokeColor=default;perimeterSpacing=0;strokeWidth=1;fillColor=none;spacing=2;" parent="1" vertex="1">
          <mxGeometry x="1495" y="70" width="80" height="30" as="geometry" />
        </mxCell>
        <mxCell id="omxpUwxtyCjrDYc1Hlnn-14" value="Last name" style="text;html=1;align=center;verticalAlign=middle;whiteSpace=wrap;rounded=0;strokeColor=default;perimeterSpacing=0;strokeWidth=1;fillColor=none;spacing=2;" parent="1" vertex="1">
          <mxGeometry x="1495" y="140" width="80" height="30" as="geometry" />
        </mxCell>
        <mxCell id="omxpUwxtyCjrDYc1Hlnn-15" value="Password" style="text;html=1;align=center;verticalAlign=middle;whiteSpace=wrap;rounded=0;strokeColor=default;perimeterSpacing=0;strokeWidth=1;fillColor=none;spacing=2;" parent="1" vertex="1">
          <mxGeometry x="1495" y="290" width="80" height="30" as="geometry" />
        </mxCell>
        <mxCell id="omxpUwxtyCjrDYc1Hlnn-16" value="Confirm Password" style="text;html=1;align=center;verticalAlign=middle;whiteSpace=wrap;rounded=0;strokeColor=default;perimeterSpacing=0;strokeWidth=1;fillColor=none;spacing=2;" parent="1" vertex="1">
          <mxGeometry x="1495" y="360" width="80" height="30" as="geometry" />
        </mxCell>
        <mxCell id="omxpUwxtyCjrDYc1Hlnn-17" value="Username&amp;nbsp;&lt;div&gt;&lt;span style=&quot;background-color: initial;&quot;&gt;(email allowed)&lt;/span&gt;&lt;/div&gt;" style="text;html=1;align=center;verticalAlign=middle;whiteSpace=wrap;rounded=0;strokeColor=default;perimeterSpacing=0;strokeWidth=1;fillColor=none;spacing=2;" parent="1" vertex="1">
          <mxGeometry x="1495" y="210" width="100" height="30" as="geometry" />
        </mxCell>
        <mxCell id="omxpUwxtyCjrDYc1Hlnn-18" value="" style="endArrow=classic;html=1;rounded=0;exitX=1;exitY=0.5;exitDx=0;exitDy=0;entryX=0;entryY=0.5;entryDx=0;entryDy=0;" parent="1" source="omxpUwxtyCjrDYc1Hlnn-12" target="omxpUwxtyCjrDYc1Hlnn-17" edge="1">
          <mxGeometry width="50" height="50" relative="1" as="geometry">
            <mxPoint x="1485" y="190" as="sourcePoint" />
            <mxPoint x="1535" y="140" as="targetPoint" />
          </mxGeometry>
        </mxCell>
        <mxCell id="omxpUwxtyCjrDYc1Hlnn-19" value="" style="endArrow=classic;html=1;rounded=0;exitX=1;exitY=0.5;exitDx=0;exitDy=0;entryX=0;entryY=0.5;entryDx=0;entryDy=0;" parent="1" source="omxpUwxtyCjrDYc1Hlnn-12" target="omxpUwxtyCjrDYc1Hlnn-14" edge="1">
          <mxGeometry width="50" height="50" relative="1" as="geometry">
            <mxPoint x="1485" y="190" as="sourcePoint" />
            <mxPoint x="1535" y="140" as="targetPoint" />
          </mxGeometry>
        </mxCell>
        <mxCell id="omxpUwxtyCjrDYc1Hlnn-20" value="" style="endArrow=classic;html=1;rounded=0;exitX=1;exitY=0.5;exitDx=0;exitDy=0;entryX=0;entryY=0.5;entryDx=0;entryDy=0;" parent="1" source="omxpUwxtyCjrDYc1Hlnn-12" edge="1">
          <mxGeometry width="50" height="50" relative="1" as="geometry">
            <mxPoint x="1485" y="190" as="sourcePoint" />
            <mxPoint x="1495" y="85" as="targetPoint" />
          </mxGeometry>
        </mxCell>
        <mxCell id="omxpUwxtyCjrDYc1Hlnn-22" value="" style="endArrow=classic;html=1;rounded=0;exitX=1;exitY=0.5;exitDx=0;exitDy=0;entryX=0;entryY=0.5;entryDx=0;entryDy=0;" parent="1" source="omxpUwxtyCjrDYc1Hlnn-12" target="omxpUwxtyCjrDYc1Hlnn-15" edge="1">
          <mxGeometry width="50" height="50" relative="1" as="geometry">
            <mxPoint x="1485" y="190" as="sourcePoint" />
            <mxPoint x="1535" y="140" as="targetPoint" />
          </mxGeometry>
        </mxCell>
        <mxCell id="omxpUwxtyCjrDYc1Hlnn-23" value="" style="endArrow=classic;html=1;rounded=0;exitX=1;exitY=0.5;exitDx=0;exitDy=0;entryX=0;entryY=0.5;entryDx=0;entryDy=0;" parent="1" source="omxpUwxtyCjrDYc1Hlnn-12" target="omxpUwxtyCjrDYc1Hlnn-16" edge="1">
          <mxGeometry width="50" height="50" relative="1" as="geometry">
            <mxPoint x="1485" y="190" as="sourcePoint" />
            <mxPoint x="1535" y="140" as="targetPoint" />
          </mxGeometry>
        </mxCell>
        <mxCell id="omxpUwxtyCjrDYc1Hlnn-24" value="Login page" style="text;html=1;align=center;verticalAlign=middle;whiteSpace=wrap;rounded=0;strokeColor=default;perimeterSpacing=0;strokeWidth=1;fillColor=none;spacing=2;" parent="1" vertex="1">
          <mxGeometry x="895" y="640" width="80" height="30" as="geometry" />
        </mxCell>
        <mxCell id="omxpUwxtyCjrDYc1Hlnn-25" value="Username" style="text;html=1;align=center;verticalAlign=middle;whiteSpace=wrap;rounded=0;strokeColor=default;perimeterSpacing=0;strokeWidth=1;fillColor=none;spacing=2;" parent="1" vertex="1">
          <mxGeometry x="1055" y="570" width="80" height="30" as="geometry" />
        </mxCell>
        <mxCell id="omxpUwxtyCjrDYc1Hlnn-26" value="Password" style="text;html=1;align=center;verticalAlign=middle;whiteSpace=wrap;rounded=0;strokeColor=default;perimeterSpacing=0;strokeWidth=1;fillColor=none;spacing=2;" parent="1" vertex="1">
          <mxGeometry x="1055" y="720" width="80" height="30" as="geometry" />
        </mxCell>
        <mxCell id="omxpUwxtyCjrDYc1Hlnn-27" value="" style="endArrow=classic;html=1;rounded=0;exitX=1;exitY=0.5;exitDx=0;exitDy=0;entryX=0;entryY=0.5;entryDx=0;entryDy=0;" parent="1" source="omxpUwxtyCjrDYc1Hlnn-24" target="omxpUwxtyCjrDYc1Hlnn-25" edge="1">
          <mxGeometry width="50" height="50" relative="1" as="geometry">
            <mxPoint x="1155" y="450" as="sourcePoint" />
            <mxPoint x="1205" y="400" as="targetPoint" />
          </mxGeometry>
        </mxCell>
        <mxCell id="omxpUwxtyCjrDYc1Hlnn-28" value="" style="endArrow=classic;html=1;rounded=0;exitX=1;exitY=0.5;exitDx=0;exitDy=0;entryX=0;entryY=0.5;entryDx=0;entryDy=0;" parent="1" source="omxpUwxtyCjrDYc1Hlnn-24" target="omxpUwxtyCjrDYc1Hlnn-26" edge="1">
          <mxGeometry width="50" height="50" relative="1" as="geometry">
            <mxPoint x="1155" y="620" as="sourcePoint" />
            <mxPoint x="1205" y="570" as="targetPoint" />
          </mxGeometry>
        </mxCell>
        <mxCell id="omxpUwxtyCjrDYc1Hlnn-29" value="Create post page" style="text;html=1;align=center;verticalAlign=middle;whiteSpace=wrap;rounded=0;strokeColor=default;perimeterSpacing=0;strokeWidth=1;fillColor=none;spacing=2;" parent="1" vertex="1">
          <mxGeometry x="1285" y="580" width="80" height="30" as="geometry" />
        </mxCell>
        <mxCell id="omxpUwxtyCjrDYc1Hlnn-30" value="Title" style="text;html=1;align=center;verticalAlign=middle;whiteSpace=wrap;rounded=0;strokeColor=default;perimeterSpacing=0;strokeWidth=1;fillColor=none;spacing=2;" parent="1" vertex="1">
          <mxGeometry x="1485" y="510" width="80" height="30" as="geometry" />
        </mxCell>
        <mxCell id="omxpUwxtyCjrDYc1Hlnn-31" value="Text" style="text;html=1;align=center;verticalAlign=middle;whiteSpace=wrap;rounded=0;strokeColor=default;perimeterSpacing=0;strokeWidth=1;fillColor=none;spacing=2;" parent="1" vertex="1">
          <mxGeometry x="1485" y="580" width="80" height="30" as="geometry" />
        </mxCell>
        <mxCell id="omxpUwxtyCjrDYc1Hlnn-32" value="Time&lt;div&gt;(auto-generated)&lt;/div&gt;" style="text;html=1;align=center;verticalAlign=middle;whiteSpace=wrap;rounded=0;strokeColor=default;perimeterSpacing=0;strokeWidth=1;fillColor=none;spacing=2;" parent="1" vertex="1">
          <mxGeometry x="1485" y="650" width="100" height="30" as="geometry" />
        </mxCell>
        <mxCell id="omxpUwxtyCjrDYc1Hlnn-33" value="" style="endArrow=classic;html=1;rounded=0;exitX=1;exitY=0.5;exitDx=0;exitDy=0;entryX=0;entryY=0.5;entryDx=0;entryDy=0;" parent="1" source="omxpUwxtyCjrDYc1Hlnn-29" target="omxpUwxtyCjrDYc1Hlnn-30" edge="1">
          <mxGeometry width="50" height="50" relative="1" as="geometry">
            <mxPoint x="1145" y="560" as="sourcePoint" />
            <mxPoint x="1195" y="510" as="targetPoint" />
          </mxGeometry>
        </mxCell>
        <mxCell id="omxpUwxtyCjrDYc1Hlnn-34" value="" style="endArrow=classic;html=1;rounded=0;entryX=0;entryY=0.5;entryDx=0;entryDy=0;exitX=1;exitY=0.5;exitDx=0;exitDy=0;" parent="1" source="omxpUwxtyCjrDYc1Hlnn-29" target="omxpUwxtyCjrDYc1Hlnn-31" edge="1">
          <mxGeometry width="50" height="50" relative="1" as="geometry">
            <mxPoint x="1145" y="560" as="sourcePoint" />
            <mxPoint x="1195" y="510" as="targetPoint" />
          </mxGeometry>
        </mxCell>
        <mxCell id="omxpUwxtyCjrDYc1Hlnn-35" value="" style="endArrow=classic;html=1;rounded=0;entryX=0;entryY=0.5;entryDx=0;entryDy=0;exitX=1;exitY=0.5;exitDx=0;exitDy=0;" parent="1" source="omxpUwxtyCjrDYc1Hlnn-29" target="omxpUwxtyCjrDYc1Hlnn-32" edge="1">
          <mxGeometry width="50" height="50" relative="1" as="geometry">
            <mxPoint x="1145" y="560" as="sourcePoint" />
            <mxPoint x="1195" y="510" as="targetPoint" />
          </mxGeometry>
        </mxCell>
        <mxCell id="omxpUwxtyCjrDYc1Hlnn-36" value="Model" style="text;html=1;align=center;verticalAlign=middle;whiteSpace=wrap;rounded=0;fontStyle=1;fontSize=40;" parent="1" vertex="1">
          <mxGeometry x="20" y="20" width="130" height="30" as="geometry" />
        </mxCell>
        <mxCell id="omxpUwxtyCjrDYc1Hlnn-37" value="View" style="text;html=1;align=center;verticalAlign=middle;whiteSpace=wrap;rounded=0;fontStyle=1;fontSize=40;" parent="1" vertex="1">
          <mxGeometry x="840" y="20" width="130" height="30" as="geometry" />
        </mxCell>
        <mxCell id="omxpUwxtyCjrDYc1Hlnn-38" value="&lt;ul style=&quot;line-height: 240%; font-size: 14px;&quot;&gt;&lt;li style=&quot;font-size: 14px;&quot;&gt;Show all posts&lt;/li&gt;&lt;li style=&quot;font-size: 14px;&quot;&gt;Sign up users&lt;/li&gt;&lt;li style=&quot;font-size: 14px;&quot;&gt;Upgrade regular user to club member or club admin (if they guess the club&#39;s secret code correctly)&lt;/li&gt;&lt;li style=&quot;font-size: 14px;&quot;&gt;Create post&lt;/li&gt;&lt;li style=&quot;font-size: 14px;&quot;&gt;Delete post&lt;/li&gt;&lt;li style=&quot;font-size: 14px;&quot;&gt;Log in&lt;/li&gt;&lt;li style=&quot;font-size: 14px;&quot;&gt;Log out&lt;/li&gt;&lt;/ul&gt;" style="text;html=1;align=left;verticalAlign=middle;whiteSpace=wrap;rounded=0;fontSize=14;" parent="1" vertex="1">
          <mxGeometry x="1730" y="105" width="410" height="240" as="geometry" />
        </mxCell>
        <mxCell id="omxpUwxtyCjrDYc1Hlnn-39" value="Join the club page" style="text;html=1;align=center;verticalAlign=middle;whiteSpace=wrap;rounded=0;strokeColor=default;perimeterSpacing=0;strokeWidth=1;fillColor=none;spacing=2;" parent="1" vertex="1">
          <mxGeometry x="895" y="930" width="80" height="30" as="geometry" />
        </mxCell>
        <mxCell id="omxpUwxtyCjrDYc1Hlnn-40" value="As a member" style="text;html=1;align=center;verticalAlign=middle;whiteSpace=wrap;rounded=0;strokeColor=default;perimeterSpacing=0;strokeWidth=1;fillColor=none;spacing=2;" parent="1" vertex="1">
          <mxGeometry x="1055" y="850" width="80" height="30" as="geometry" />
        </mxCell>
        <mxCell id="omxpUwxtyCjrDYc1Hlnn-41" value="As an admin" style="text;html=1;align=center;verticalAlign=middle;whiteSpace=wrap;rounded=0;strokeColor=default;perimeterSpacing=0;strokeWidth=1;fillColor=none;spacing=2;" parent="1" vertex="1">
          <mxGeometry x="1055" y="1000" width="80" height="30" as="geometry" />
        </mxCell>
        <mxCell id="omxpUwxtyCjrDYc1Hlnn-42" value="" style="endArrow=classic;html=1;rounded=0;exitX=1;exitY=0.5;exitDx=0;exitDy=0;entryX=0;entryY=0.5;entryDx=0;entryDy=0;" parent="1" source="omxpUwxtyCjrDYc1Hlnn-39" target="omxpUwxtyCjrDYc1Hlnn-40" edge="1">
          <mxGeometry width="50" height="50" relative="1" as="geometry">
            <mxPoint x="1215" y="880" as="sourcePoint" />
            <mxPoint x="1265" y="830" as="targetPoint" />
          </mxGeometry>
        </mxCell>
        <mxCell id="omxpUwxtyCjrDYc1Hlnn-43" value="" style="endArrow=classic;html=1;rounded=0;exitX=1;exitY=0.5;exitDx=0;exitDy=0;entryX=0;entryY=0.5;entryDx=0;entryDy=0;" parent="1" source="omxpUwxtyCjrDYc1Hlnn-39" target="omxpUwxtyCjrDYc1Hlnn-41" edge="1">
          <mxGeometry width="50" height="50" relative="1" as="geometry">
            <mxPoint x="1215" y="880" as="sourcePoint" />
            <mxPoint x="1265" y="830" as="targetPoint" />
          </mxGeometry>
        </mxCell>
        <mxCell id="omxpUwxtyCjrDYc1Hlnn-44" value="Controller" style="text;html=1;align=center;verticalAlign=middle;whiteSpace=wrap;rounded=0;fontStyle=1;fontSize=40;" parent="1" vertex="1">
          <mxGeometry x="1730" y="20" width="130" height="30" as="geometry" />
        </mxCell>
        <mxCell id="omxpUwxtyCjrDYc1Hlnn-45" value="Sign up button" style="text;html=1;align=center;verticalAlign=middle;whiteSpace=wrap;rounded=0;strokeColor=default;perimeterSpacing=0;strokeWidth=1;fillColor=none;spacing=2;" parent="1" vertex="1">
          <mxGeometry x="1065" y="220" width="80" height="30" as="geometry" />
        </mxCell>
        <mxCell id="omxpUwxtyCjrDYc1Hlnn-46" value="Join the club button" style="text;html=1;align=center;verticalAlign=middle;whiteSpace=wrap;rounded=0;strokeColor=default;perimeterSpacing=0;strokeWidth=1;fillColor=none;spacing=2;" parent="1" vertex="1">
          <mxGeometry x="1065" y="290" width="80" height="30" as="geometry" />
        </mxCell>
        <mxCell id="omxpUwxtyCjrDYc1Hlnn-48" value="" style="endArrow=classic;html=1;rounded=0;exitX=1;exitY=0.5;exitDx=0;exitDy=0;entryX=0;entryY=0.5;entryDx=0;entryDy=0;" parent="1" source="omxpUwxtyCjrDYc1Hlnn-1" target="omxpUwxtyCjrDYc1Hlnn-45" edge="1">
          <mxGeometry width="50" height="50" relative="1" as="geometry">
            <mxPoint x="1315" y="300" as="sourcePoint" />
            <mxPoint x="1365" y="250" as="targetPoint" />
          </mxGeometry>
        </mxCell>
        <mxCell id="omxpUwxtyCjrDYc1Hlnn-49" value="" style="endArrow=classic;html=1;rounded=0;exitX=1;exitY=0.5;exitDx=0;exitDy=0;entryX=0;entryY=0.5;entryDx=0;entryDy=0;" parent="1" source="omxpUwxtyCjrDYc1Hlnn-1" target="omxpUwxtyCjrDYc1Hlnn-46" edge="1">
          <mxGeometry width="50" height="50" relative="1" as="geometry">
            <mxPoint x="1315" y="300" as="sourcePoint" />
            <mxPoint x="1365" y="250" as="targetPoint" />
          </mxGeometry>
        </mxCell>
        <mxCell id="myUhRKtDUaQ0Q6dGd93A-1" value="users" style="shape=table;startSize=30;container=1;collapsible=0;childLayout=tableLayout;strokeColor=default;fontSize=16;" parent="1" vertex="1">
          <mxGeometry x="20" y="1280" width="500" height="190" as="geometry" />
        </mxCell>
        <mxCell id="myUhRKtDUaQ0Q6dGd93A-2" value="" style="shape=tableRow;horizontal=0;startSize=0;swimlaneHead=0;swimlaneBody=0;strokeColor=inherit;top=0;left=0;bottom=0;right=0;collapsible=0;dropTarget=0;fillColor=none;points=[[0,0.5],[1,0.5]];portConstraint=eastwest;fontSize=16;" parent="myUhRKtDUaQ0Q6dGd93A-1" vertex="1">
          <mxGeometry y="30" width="500" height="40" as="geometry" />
        </mxCell>
        <mxCell id="myUhRKtDUaQ0Q6dGd93A-3" value="id" style="shape=partialRectangle;html=1;whiteSpace=wrap;connectable=0;strokeColor=inherit;overflow=hidden;fillColor=none;top=0;left=0;bottom=0;right=0;pointerEvents=1;fontSize=16;fontColor=#97D077;" parent="myUhRKtDUaQ0Q6dGd93A-2" vertex="1">
          <mxGeometry width="60" height="40" as="geometry">
            <mxRectangle width="60" height="40" as="alternateBounds" />
          </mxGeometry>
        </mxCell>
        <mxCell id="myUhRKtDUaQ0Q6dGd93A-4" value="username" style="shape=partialRectangle;html=1;whiteSpace=wrap;connectable=0;strokeColor=inherit;overflow=hidden;fillColor=none;top=0;left=0;bottom=0;right=0;pointerEvents=1;fontSize=16;" parent="myUhRKtDUaQ0Q6dGd93A-2" vertex="1">
          <mxGeometry x="60" width="80" height="40" as="geometry">
            <mxRectangle width="80" height="40" as="alternateBounds" />
          </mxGeometry>
        </mxCell>
        <mxCell id="myUhRKtDUaQ0Q6dGd93A-5" value="first_name" style="shape=partialRectangle;html=1;whiteSpace=wrap;connectable=0;strokeColor=inherit;overflow=hidden;fillColor=none;top=0;left=0;bottom=0;right=0;pointerEvents=1;fontSize=16;" parent="myUhRKtDUaQ0Q6dGd93A-2" vertex="1">
          <mxGeometry x="140" width="120" height="40" as="geometry">
            <mxRectangle width="120" height="40" as="alternateBounds" />
          </mxGeometry>
        </mxCell>
        <mxCell id="myUhRKtDUaQ0Q6dGd93A-6" value="last_name" style="shape=partialRectangle;html=1;whiteSpace=wrap;connectable=0;strokeColor=inherit;overflow=hidden;fillColor=none;top=0;left=0;bottom=0;right=0;pointerEvents=1;fontSize=16;" parent="myUhRKtDUaQ0Q6dGd93A-2" vertex="1">
          <mxGeometry x="260" width="120" height="40" as="geometry">
            <mxRectangle width="120" height="40" as="alternateBounds" />
          </mxGeometry>
        </mxCell>
        <mxCell id="myUhRKtDUaQ0Q6dGd93A-7" value="password" style="shape=partialRectangle;html=1;whiteSpace=wrap;connectable=0;strokeColor=inherit;overflow=hidden;fillColor=none;top=0;left=0;bottom=0;right=0;pointerEvents=1;fontSize=16;" parent="myUhRKtDUaQ0Q6dGd93A-2" vertex="1">
          <mxGeometry x="380" width="120" height="40" as="geometry">
            <mxRectangle width="120" height="40" as="alternateBounds" />
          </mxGeometry>
        </mxCell>
        <mxCell id="myUhRKtDUaQ0Q6dGd93A-8" value="" style="shape=tableRow;horizontal=0;startSize=0;swimlaneHead=0;swimlaneBody=0;strokeColor=inherit;top=0;left=0;bottom=0;right=0;collapsible=0;dropTarget=0;fillColor=none;points=[[0,0.5],[1,0.5]];portConstraint=eastwest;fontSize=16;" parent="myUhRKtDUaQ0Q6dGd93A-1" vertex="1">
          <mxGeometry y="70" width="500" height="40" as="geometry" />
        </mxCell>
        <mxCell id="myUhRKtDUaQ0Q6dGd93A-9" value="1" style="shape=partialRectangle;html=1;whiteSpace=wrap;connectable=0;strokeColor=inherit;overflow=hidden;fillColor=none;top=0;left=0;bottom=0;right=0;pointerEvents=1;fontSize=16;fontColor=#97D077;" parent="myUhRKtDUaQ0Q6dGd93A-8" vertex="1">
          <mxGeometry width="60" height="40" as="geometry">
            <mxRectangle width="60" height="40" as="alternateBounds" />
          </mxGeometry>
        </mxCell>
        <mxCell id="myUhRKtDUaQ0Q6dGd93A-10" value="olu" style="shape=partialRectangle;html=1;whiteSpace=wrap;connectable=0;strokeColor=inherit;overflow=hidden;fillColor=none;top=0;left=0;bottom=0;right=0;pointerEvents=1;fontSize=16;" parent="myUhRKtDUaQ0Q6dGd93A-8" vertex="1">
          <mxGeometry x="60" width="80" height="40" as="geometry">
            <mxRectangle width="80" height="40" as="alternateBounds" />
          </mxGeometry>
        </mxCell>
        <mxCell id="myUhRKtDUaQ0Q6dGd93A-11" value="Oluwatobi" style="shape=partialRectangle;html=1;whiteSpace=wrap;connectable=0;strokeColor=inherit;overflow=hidden;fillColor=none;top=0;left=0;bottom=0;right=0;pointerEvents=1;fontSize=16;" parent="myUhRKtDUaQ0Q6dGd93A-8" vertex="1">
          <mxGeometry x="140" width="120" height="40" as="geometry">
            <mxRectangle width="120" height="40" as="alternateBounds" />
          </mxGeometry>
        </mxCell>
        <mxCell id="myUhRKtDUaQ0Q6dGd93A-12" value="Sofela" style="shape=partialRectangle;html=1;whiteSpace=wrap;connectable=0;strokeColor=inherit;overflow=hidden;fillColor=none;top=0;left=0;bottom=0;right=0;pointerEvents=1;fontSize=16;" parent="myUhRKtDUaQ0Q6dGd93A-8" vertex="1">
          <mxGeometry x="260" width="120" height="40" as="geometry">
            <mxRectangle width="120" height="40" as="alternateBounds" />
          </mxGeometry>
        </mxCell>
        <mxCell id="myUhRKtDUaQ0Q6dGd93A-13" value="test" style="shape=partialRectangle;html=1;whiteSpace=wrap;connectable=0;strokeColor=inherit;overflow=hidden;fillColor=none;top=0;left=0;bottom=0;right=0;pointerEvents=1;fontSize=16;" parent="myUhRKtDUaQ0Q6dGd93A-8" vertex="1">
          <mxGeometry x="380" width="120" height="40" as="geometry">
            <mxRectangle width="120" height="40" as="alternateBounds" />
          </mxGeometry>
        </mxCell>
        <mxCell id="myUhRKtDUaQ0Q6dGd93A-14" value="" style="shape=tableRow;horizontal=0;startSize=0;swimlaneHead=0;swimlaneBody=0;strokeColor=inherit;top=0;left=0;bottom=0;right=0;collapsible=0;dropTarget=0;fillColor=none;points=[[0,0.5],[1,0.5]];portConstraint=eastwest;fontSize=16;" parent="myUhRKtDUaQ0Q6dGd93A-1" vertex="1">
          <mxGeometry y="110" width="500" height="40" as="geometry" />
        </mxCell>
        <mxCell id="myUhRKtDUaQ0Q6dGd93A-15" value="2" style="shape=partialRectangle;html=1;whiteSpace=wrap;connectable=0;strokeColor=inherit;overflow=hidden;fillColor=none;top=0;left=0;bottom=0;right=0;pointerEvents=1;fontSize=16;fontColor=#97D077;" parent="myUhRKtDUaQ0Q6dGd93A-14" vertex="1">
          <mxGeometry width="60" height="40" as="geometry">
            <mxRectangle width="60" height="40" as="alternateBounds" />
          </mxGeometry>
        </mxCell>
        <mxCell id="myUhRKtDUaQ0Q6dGd93A-16" value="cod" style="shape=partialRectangle;html=1;whiteSpace=wrap;connectable=0;strokeColor=inherit;overflow=hidden;fillColor=none;top=0;left=0;bottom=0;right=0;pointerEvents=1;fontSize=16;" parent="myUhRKtDUaQ0Q6dGd93A-14" vertex="1">
          <mxGeometry x="60" width="80" height="40" as="geometry">
            <mxRectangle width="80" height="40" as="alternateBounds" />
          </mxGeometry>
        </mxCell>
        <mxCell id="myUhRKtDUaQ0Q6dGd93A-17" value="Code" style="shape=partialRectangle;html=1;whiteSpace=wrap;connectable=0;strokeColor=inherit;overflow=hidden;fillColor=none;top=0;left=0;bottom=0;right=0;pointerEvents=1;fontSize=16;" parent="myUhRKtDUaQ0Q6dGd93A-14" vertex="1">
          <mxGeometry x="140" width="120" height="40" as="geometry">
            <mxRectangle width="120" height="40" as="alternateBounds" />
          </mxGeometry>
        </mxCell>
        <mxCell id="myUhRKtDUaQ0Q6dGd93A-18" value="Sweetly" style="shape=partialRectangle;html=1;whiteSpace=wrap;connectable=0;strokeColor=inherit;overflow=hidden;fillColor=none;top=0;left=0;bottom=0;right=0;pointerEvents=1;fontSize=16;" parent="myUhRKtDUaQ0Q6dGd93A-14" vertex="1">
          <mxGeometry x="260" width="120" height="40" as="geometry">
            <mxRectangle width="120" height="40" as="alternateBounds" />
          </mxGeometry>
        </mxCell>
        <mxCell id="myUhRKtDUaQ0Q6dGd93A-19" value="sample" style="shape=partialRectangle;html=1;whiteSpace=wrap;connectable=0;strokeColor=inherit;overflow=hidden;fillColor=none;top=0;left=0;bottom=0;right=0;pointerEvents=1;fontSize=16;" parent="myUhRKtDUaQ0Q6dGd93A-14" vertex="1">
          <mxGeometry x="380" width="120" height="40" as="geometry">
            <mxRectangle width="120" height="40" as="alternateBounds" />
          </mxGeometry>
        </mxCell>
        <mxCell id="myUhRKtDUaQ0Q6dGd93A-20" style="shape=tableRow;horizontal=0;startSize=0;swimlaneHead=0;swimlaneBody=0;strokeColor=inherit;top=0;left=0;bottom=0;right=0;collapsible=0;dropTarget=0;fillColor=none;points=[[0,0.5],[1,0.5]];portConstraint=eastwest;fontSize=16;" parent="myUhRKtDUaQ0Q6dGd93A-1" vertex="1">
          <mxGeometry y="150" width="500" height="40" as="geometry" />
        </mxCell>
        <mxCell id="myUhRKtDUaQ0Q6dGd93A-21" value="3" style="shape=partialRectangle;html=1;whiteSpace=wrap;connectable=0;strokeColor=inherit;overflow=hidden;fillColor=none;top=0;left=0;bottom=0;right=0;pointerEvents=1;fontSize=16;fontColor=#97D077;" parent="myUhRKtDUaQ0Q6dGd93A-20" vertex="1">
          <mxGeometry width="60" height="40" as="geometry">
            <mxRectangle width="60" height="40" as="alternateBounds" />
          </mxGeometry>
        </mxCell>
        <mxCell id="myUhRKtDUaQ0Q6dGd93A-22" value="sar" style="shape=partialRectangle;html=1;whiteSpace=wrap;connectable=0;strokeColor=inherit;overflow=hidden;fillColor=none;top=0;left=0;bottom=0;right=0;pointerEvents=1;fontSize=16;" parent="myUhRKtDUaQ0Q6dGd93A-20" vertex="1">
          <mxGeometry x="60" width="80" height="40" as="geometry">
            <mxRectangle width="80" height="40" as="alternateBounds" />
          </mxGeometry>
        </mxCell>
        <mxCell id="myUhRKtDUaQ0Q6dGd93A-23" value="Amax" style="shape=partialRectangle;html=1;whiteSpace=wrap;connectable=0;strokeColor=inherit;overflow=hidden;fillColor=none;top=0;left=0;bottom=0;right=0;pointerEvents=1;fontSize=16;" parent="myUhRKtDUaQ0Q6dGd93A-20" vertex="1">
          <mxGeometry x="140" width="120" height="40" as="geometry">
            <mxRectangle width="120" height="40" as="alternateBounds" />
          </mxGeometry>
        </mxCell>
        <mxCell id="myUhRKtDUaQ0Q6dGd93A-24" value="Brill" style="shape=partialRectangle;html=1;whiteSpace=wrap;connectable=0;strokeColor=inherit;overflow=hidden;fillColor=none;top=0;left=0;bottom=0;right=0;pointerEvents=1;fontSize=16;" parent="myUhRKtDUaQ0Q6dGd93A-20" vertex="1">
          <mxGeometry x="260" width="120" height="40" as="geometry">
            <mxRectangle width="120" height="40" as="alternateBounds" />
          </mxGeometry>
        </mxCell>
        <mxCell id="myUhRKtDUaQ0Q6dGd93A-25" value="example" style="shape=partialRectangle;html=1;whiteSpace=wrap;connectable=0;strokeColor=inherit;overflow=hidden;fillColor=none;top=0;left=0;bottom=0;right=0;pointerEvents=1;fontSize=16;" parent="myUhRKtDUaQ0Q6dGd93A-20" vertex="1">
          <mxGeometry x="380" width="120" height="40" as="geometry">
            <mxRectangle width="120" height="40" as="alternateBounds" />
          </mxGeometry>
        </mxCell>
        <mxCell id="myUhRKtDUaQ0Q6dGd93A-68" value="user_status" style="shape=table;startSize=30;container=1;collapsible=0;childLayout=tableLayout;strokeColor=default;fontSize=16;" parent="1" vertex="1">
          <mxGeometry x="520" y="1280" width="170" height="190" as="geometry" />
        </mxCell>
        <mxCell id="myUhRKtDUaQ0Q6dGd93A-69" value="" style="shape=tableRow;horizontal=0;startSize=0;swimlaneHead=0;swimlaneBody=0;strokeColor=inherit;top=0;left=0;bottom=0;right=0;collapsible=0;dropTarget=0;fillColor=none;points=[[0,0.5],[1,0.5]];portConstraint=eastwest;fontSize=16;" parent="myUhRKtDUaQ0Q6dGd93A-68" vertex="1">
          <mxGeometry y="30" width="170" height="40" as="geometry" />
        </mxCell>
        <mxCell id="myUhRKtDUaQ0Q6dGd93A-71" value="user_id" style="shape=partialRectangle;html=1;whiteSpace=wrap;connectable=0;strokeColor=inherit;overflow=hidden;fillColor=none;top=0;left=0;bottom=0;right=0;pointerEvents=1;fontSize=16;fontColor=#97D077;" parent="myUhRKtDUaQ0Q6dGd93A-69" vertex="1">
          <mxGeometry width="80" height="40" as="geometry">
            <mxRectangle width="80" height="40" as="alternateBounds" />
          </mxGeometry>
        </mxCell>
        <mxCell id="myUhRKtDUaQ0Q6dGd93A-72" value="status_id" style="shape=partialRectangle;html=1;whiteSpace=wrap;connectable=0;strokeColor=inherit;overflow=hidden;fillColor=none;top=0;left=0;bottom=0;right=0;pointerEvents=1;fontSize=16;fontColor=#FF66FF;" parent="myUhRKtDUaQ0Q6dGd93A-69" vertex="1">
          <mxGeometry x="80" width="90" height="40" as="geometry">
            <mxRectangle width="90" height="40" as="alternateBounds" />
          </mxGeometry>
        </mxCell>
        <mxCell id="myUhRKtDUaQ0Q6dGd93A-73" value="" style="shape=tableRow;horizontal=0;startSize=0;swimlaneHead=0;swimlaneBody=0;strokeColor=inherit;top=0;left=0;bottom=0;right=0;collapsible=0;dropTarget=0;fillColor=none;points=[[0,0.5],[1,0.5]];portConstraint=eastwest;fontSize=16;" parent="myUhRKtDUaQ0Q6dGd93A-68" vertex="1">
          <mxGeometry y="70" width="170" height="40" as="geometry" />
        </mxCell>
        <mxCell id="myUhRKtDUaQ0Q6dGd93A-75" value="1" style="shape=partialRectangle;html=1;whiteSpace=wrap;connectable=0;strokeColor=inherit;overflow=hidden;fillColor=none;top=0;left=0;bottom=0;right=0;pointerEvents=1;fontSize=16;fontColor=#97D077;" parent="myUhRKtDUaQ0Q6dGd93A-73" vertex="1">
          <mxGeometry width="80" height="40" as="geometry">
            <mxRectangle width="80" height="40" as="alternateBounds" />
          </mxGeometry>
        </mxCell>
        <mxCell id="myUhRKtDUaQ0Q6dGd93A-76" value="2" style="shape=partialRectangle;html=1;whiteSpace=wrap;connectable=0;strokeColor=inherit;overflow=hidden;fillColor=none;top=0;left=0;bottom=0;right=0;pointerEvents=1;fontSize=16;fontColor=#FF66FF;" parent="myUhRKtDUaQ0Q6dGd93A-73" vertex="1">
          <mxGeometry x="80" width="90" height="40" as="geometry">
            <mxRectangle width="90" height="40" as="alternateBounds" />
          </mxGeometry>
        </mxCell>
        <mxCell id="myUhRKtDUaQ0Q6dGd93A-77" value="" style="shape=tableRow;horizontal=0;startSize=0;swimlaneHead=0;swimlaneBody=0;strokeColor=inherit;top=0;left=0;bottom=0;right=0;collapsible=0;dropTarget=0;fillColor=none;points=[[0,0.5],[1,0.5]];portConstraint=eastwest;fontSize=16;" parent="myUhRKtDUaQ0Q6dGd93A-68" vertex="1">
          <mxGeometry y="110" width="170" height="40" as="geometry" />
        </mxCell>
        <mxCell id="myUhRKtDUaQ0Q6dGd93A-79" value="2" style="shape=partialRectangle;html=1;whiteSpace=wrap;connectable=0;strokeColor=inherit;overflow=hidden;fillColor=none;top=0;left=0;bottom=0;right=0;pointerEvents=1;fontSize=16;fontColor=#97D077;" parent="myUhRKtDUaQ0Q6dGd93A-77" vertex="1">
          <mxGeometry width="80" height="40" as="geometry">
            <mxRectangle width="80" height="40" as="alternateBounds" />
          </mxGeometry>
        </mxCell>
        <mxCell id="myUhRKtDUaQ0Q6dGd93A-80" value="1" style="shape=partialRectangle;html=1;whiteSpace=wrap;connectable=0;strokeColor=inherit;overflow=hidden;fillColor=none;top=0;left=0;bottom=0;right=0;pointerEvents=1;fontSize=16;fontColor=#FF66FF;" parent="myUhRKtDUaQ0Q6dGd93A-77" vertex="1">
          <mxGeometry x="80" width="90" height="40" as="geometry">
            <mxRectangle width="90" height="40" as="alternateBounds" />
          </mxGeometry>
        </mxCell>
        <mxCell id="myUhRKtDUaQ0Q6dGd93A-81" style="shape=tableRow;horizontal=0;startSize=0;swimlaneHead=0;swimlaneBody=0;strokeColor=inherit;top=0;left=0;bottom=0;right=0;collapsible=0;dropTarget=0;fillColor=none;points=[[0,0.5],[1,0.5]];portConstraint=eastwest;fontSize=16;" parent="myUhRKtDUaQ0Q6dGd93A-68" vertex="1">
          <mxGeometry y="150" width="170" height="40" as="geometry" />
        </mxCell>
        <mxCell id="myUhRKtDUaQ0Q6dGd93A-83" value="3" style="shape=partialRectangle;html=1;whiteSpace=wrap;connectable=0;strokeColor=inherit;overflow=hidden;fillColor=none;top=0;left=0;bottom=0;right=0;pointerEvents=1;fontSize=16;fontColor=#97D077;" parent="myUhRKtDUaQ0Q6dGd93A-81" vertex="1">
          <mxGeometry width="80" height="40" as="geometry">
            <mxRectangle width="80" height="40" as="alternateBounds" />
          </mxGeometry>
        </mxCell>
        <mxCell id="myUhRKtDUaQ0Q6dGd93A-84" value="3" style="shape=partialRectangle;html=1;whiteSpace=wrap;connectable=0;strokeColor=inherit;overflow=hidden;fillColor=none;top=0;left=0;bottom=0;right=0;pointerEvents=1;fontSize=16;fontColor=#FF66FF;" parent="myUhRKtDUaQ0Q6dGd93A-81" vertex="1">
          <mxGeometry x="80" width="90" height="40" as="geometry">
            <mxRectangle width="90" height="40" as="alternateBounds" />
          </mxGeometry>
        </mxCell>
        <mxCell id="myUhRKtDUaQ0Q6dGd93A-111" value="statuses" style="shape=table;startSize=30;container=1;collapsible=0;childLayout=tableLayout;strokeColor=default;fontSize=16;" parent="1" vertex="1">
          <mxGeometry x="690" y="1280" width="120" height="190" as="geometry" />
        </mxCell>
        <mxCell id="myUhRKtDUaQ0Q6dGd93A-112" value="" style="shape=tableRow;horizontal=0;startSize=0;swimlaneHead=0;swimlaneBody=0;strokeColor=inherit;top=0;left=0;bottom=0;right=0;collapsible=0;dropTarget=0;fillColor=none;points=[[0,0.5],[1,0.5]];portConstraint=eastwest;fontSize=16;" parent="myUhRKtDUaQ0Q6dGd93A-111" vertex="1">
          <mxGeometry y="30" width="120" height="40" as="geometry" />
        </mxCell>
        <mxCell id="myUhRKtDUaQ0Q6dGd93A-113" value="id" style="shape=partialRectangle;html=1;whiteSpace=wrap;connectable=0;strokeColor=inherit;overflow=hidden;fillColor=none;top=0;left=0;bottom=0;right=0;pointerEvents=1;fontSize=16;fontColor=#FF66FF;" parent="myUhRKtDUaQ0Q6dGd93A-112" vertex="1">
          <mxGeometry width="60" height="40" as="geometry">
            <mxRectangle width="60" height="40" as="alternateBounds" />
          </mxGeometry>
        </mxCell>
        <mxCell id="myUhRKtDUaQ0Q6dGd93A-114" value="name" style="shape=partialRectangle;html=1;whiteSpace=wrap;connectable=0;strokeColor=inherit;overflow=hidden;fillColor=none;top=0;left=0;bottom=0;right=0;pointerEvents=1;fontSize=16;" parent="myUhRKtDUaQ0Q6dGd93A-112" vertex="1">
          <mxGeometry x="60" width="60" height="40" as="geometry">
            <mxRectangle width="60" height="40" as="alternateBounds" />
          </mxGeometry>
        </mxCell>
        <mxCell id="myUhRKtDUaQ0Q6dGd93A-115" value="" style="shape=tableRow;horizontal=0;startSize=0;swimlaneHead=0;swimlaneBody=0;strokeColor=inherit;top=0;left=0;bottom=0;right=0;collapsible=0;dropTarget=0;fillColor=none;points=[[0,0.5],[1,0.5]];portConstraint=eastwest;fontSize=16;" parent="myUhRKtDUaQ0Q6dGd93A-111" vertex="1">
          <mxGeometry y="70" width="120" height="40" as="geometry" />
        </mxCell>
        <mxCell id="myUhRKtDUaQ0Q6dGd93A-116" value="2" style="shape=partialRectangle;html=1;whiteSpace=wrap;connectable=0;strokeColor=inherit;overflow=hidden;fillColor=none;top=0;left=0;bottom=0;right=0;pointerEvents=1;fontSize=16;fontColor=#FF66FF;" parent="myUhRKtDUaQ0Q6dGd93A-115" vertex="1">
          <mxGeometry width="60" height="40" as="geometry">
            <mxRectangle width="60" height="40" as="alternateBounds" />
          </mxGeometry>
        </mxCell>
        <mxCell id="myUhRKtDUaQ0Q6dGd93A-117" value="member" style="shape=partialRectangle;html=1;whiteSpace=wrap;connectable=0;strokeColor=inherit;overflow=hidden;fillColor=none;top=0;left=0;bottom=0;right=0;pointerEvents=1;fontSize=16;" parent="myUhRKtDUaQ0Q6dGd93A-115" vertex="1">
          <mxGeometry x="60" width="60" height="40" as="geometry">
            <mxRectangle width="60" height="40" as="alternateBounds" />
          </mxGeometry>
        </mxCell>
        <mxCell id="myUhRKtDUaQ0Q6dGd93A-118" value="" style="shape=tableRow;horizontal=0;startSize=0;swimlaneHead=0;swimlaneBody=0;strokeColor=inherit;top=0;left=0;bottom=0;right=0;collapsible=0;dropTarget=0;fillColor=none;points=[[0,0.5],[1,0.5]];portConstraint=eastwest;fontSize=16;" parent="myUhRKtDUaQ0Q6dGd93A-111" vertex="1">
          <mxGeometry y="110" width="120" height="40" as="geometry" />
        </mxCell>
        <mxCell id="myUhRKtDUaQ0Q6dGd93A-119" value="1" style="shape=partialRectangle;html=1;whiteSpace=wrap;connectable=0;strokeColor=inherit;overflow=hidden;fillColor=none;top=0;left=0;bottom=0;right=0;pointerEvents=1;fontSize=16;fontColor=#FF66FF;" parent="myUhRKtDUaQ0Q6dGd93A-118" vertex="1">
          <mxGeometry width="60" height="40" as="geometry">
            <mxRectangle width="60" height="40" as="alternateBounds" />
          </mxGeometry>
        </mxCell>
        <mxCell id="myUhRKtDUaQ0Q6dGd93A-120" value="author" style="shape=partialRectangle;html=1;whiteSpace=wrap;connectable=0;strokeColor=inherit;overflow=hidden;fillColor=none;top=0;left=0;bottom=0;right=0;pointerEvents=1;fontSize=16;" parent="myUhRKtDUaQ0Q6dGd93A-118" vertex="1">
          <mxGeometry x="60" width="60" height="40" as="geometry">
            <mxRectangle width="60" height="40" as="alternateBounds" />
          </mxGeometry>
        </mxCell>
        <mxCell id="myUhRKtDUaQ0Q6dGd93A-121" style="shape=tableRow;horizontal=0;startSize=0;swimlaneHead=0;swimlaneBody=0;strokeColor=inherit;top=0;left=0;bottom=0;right=0;collapsible=0;dropTarget=0;fillColor=none;points=[[0,0.5],[1,0.5]];portConstraint=eastwest;fontSize=16;" parent="myUhRKtDUaQ0Q6dGd93A-111" vertex="1">
          <mxGeometry y="150" width="120" height="40" as="geometry" />
        </mxCell>
        <mxCell id="myUhRKtDUaQ0Q6dGd93A-122" value="3" style="shape=partialRectangle;html=1;whiteSpace=wrap;connectable=0;strokeColor=inherit;overflow=hidden;fillColor=none;top=0;left=0;bottom=0;right=0;pointerEvents=1;fontSize=16;fontColor=#FF66FF;" parent="myUhRKtDUaQ0Q6dGd93A-121" vertex="1">
          <mxGeometry width="60" height="40" as="geometry">
            <mxRectangle width="60" height="40" as="alternateBounds" />
          </mxGeometry>
        </mxCell>
        <mxCell id="myUhRKtDUaQ0Q6dGd93A-123" value="admin" style="shape=partialRectangle;html=1;whiteSpace=wrap;connectable=0;strokeColor=inherit;overflow=hidden;fillColor=none;top=0;left=0;bottom=0;right=0;pointerEvents=1;fontSize=16;" parent="myUhRKtDUaQ0Q6dGd93A-121" vertex="1">
          <mxGeometry x="60" width="60" height="40" as="geometry">
            <mxRectangle width="60" height="40" as="alternateBounds" />
          </mxGeometry>
        </mxCell>
        <mxCell id="myUhRKtDUaQ0Q6dGd93A-124" value="Join" style="text;html=1;align=center;verticalAlign=middle;whiteSpace=wrap;rounded=0;fontStyle=1;fontSize=40;" parent="1" vertex="1">
          <mxGeometry x="30" y="1200" width="130" height="30" as="geometry" />
        </mxCell>
      </root>
    </mxGraphModel>
  </diagram>
</mxfile>
